<svg version="1.1" viewBox="0.0 0.0 907.0787401574803 404.4251968503937" fill="none" stroke="none" stroke-linecap="square" stroke-miterlimit="10" xmlns:xlink="http://www.w3.org/1999/xlink" xmlns="http://www.w3.org/2000/svg"><clipPath id="p.0"><path d="m0 0l907.07874 0l0 404.4252l-907.07874 0l0 -404.4252z" clip-rule="nonzero"/></clipPath><g clip-path="url(#p.0)"><path fill="#ffffff" d="m0 0l907.07874 0l0 404.4252l-907.07874 0z" fill-rule="evenodd"/><path fill="#d5a6bd" d="m118.50394 263.44095l766.99207 0l0 121.19684l-766.99207 0z" fill-rule="evenodd"/><path fill="#b6d7a8" d="m110.0 20.23097l473.7323 0l0 119.71654l-473.7323 0z" fill-rule="evenodd"/><path fill="#efefef" d="m27.721785 134.60367l0 0c0 -12.080681 9.793329 -21.874008 21.874018 -21.874008q10.937008 0 21.874016 0q0 10.937004 0 21.874008l0 0c0 12.080688 -9.793331 21.874023 -21.874016 21.874023l0 0c-12.080688 0 -21.874018 -9.793335 -21.874018 -21.874023z" fill-rule="evenodd"/><path stroke="#666666" stroke-width="1.0" stroke-linejoin="round" stroke-linecap="butt" d="m27.721785 134.60367l0 0c0 -12.080681 9.793329 -21.874008 21.874018 -21.874008q10.937008 0 21.874016 0q0 10.937004 0 21.874008l0 0c0 12.080688 -9.793331 21.874023 -21.874016 21.874023l0 0c-12.080688 0 -21.874018 -9.793335 -21.874018 -21.874023z" fill-rule="evenodd"/><path fill="#efefef" d="m134.87007 297.89523l0 0c0 -5.752014 4.662918 -10.414917 10.414917 -10.414917l126.03633 0c2.762207 0 5.4112854 1.09729 7.364441 3.0504456c1.953186 1.953186 3.0504456 4.6022644 3.0504456 7.3644714l0 41.658356c0 5.752014 -4.662903 10.414917 -10.414886 10.414917l-126.03633 0c-5.751999 0 -10.414917 -4.662903 -10.414917 -10.414917z" fill-rule="evenodd"/><path stroke="#666666" stroke-width="1.0" stroke-linejoin="round" stroke-linecap="butt" d="m134.87007 297.89523l0 0c0 -5.752014 4.662918 -10.414917 10.414917 -10.414917l126.03633 0c2.762207 0 5.4112854 1.09729 7.364441 3.0504456c1.953186 1.953186 3.0504456 4.6022644 3.0504456 7.3644714l0 41.658356c0 5.752014 -4.662903 10.414917 -10.414886 10.414917l-126.03633 0c-5.751999 0 -10.414917 -4.662903 -10.414917 -10.414917z" fill-rule="evenodd"/><path fill="#000000" d="m173.33578 324.3319q0.546875 0 1.0 -0.046875q0.453125 -0.0625 0.84375 -0.15625q0.40625 -0.109375 0.765625 -0.25q0.359375 -0.140625 0.703125 -0.328125l0 -2.953125l-2.0625 0q-0.1875 0 -0.296875 -0.09375q-0.09375 -0.109375 -0.09375 -0.265625l0 -1.015625l4.09375 0l0 5.125q-0.5 0.359375 -1.046875 0.640625q-0.546875 0.265625 -1.171875 0.453125q-0.609375 0.171875 -1.328125 0.265625q-0.703125 0.09375 -1.53125 0.09375q-1.453125 0 -2.671875 -0.5q-1.203125 -0.5 -2.09375 -1.40625q-0.875 -0.90625 -1.359375 -2.15625q-0.484375 -1.265625 -0.484375 -2.765625q0 -1.53125 0.46875 -2.796875q0.484375 -1.265625 1.375 -2.15625q0.890625 -0.90625 2.15625 -1.390625q1.265625 -0.5 2.828125 -0.5q0.796875 0 1.46875 0.125q0.6875 0.109375 1.265625 0.328125q0.59375 0.21875 1.078125 0.53125q0.5 0.3125 0.9375 0.703125l-0.515625 0.828125q-0.15625 0.25 -0.40625 0.25q-0.15625 0 -0.328125 -0.109375q-0.234375 -0.125 -0.53125 -0.3125q-0.28125 -0.1875 -0.703125 -0.359375q-0.40625 -0.171875 -0.984375 -0.296875q-0.5625 -0.125 -1.328125 -0.125q-1.125 0 -2.046875 0.375q-0.90625 0.359375 -1.5625 1.046875q-0.640625 0.6875 -0.984375 1.671875q-0.34375 0.96875 -0.34375 2.1875q0 1.265625 0.359375 2.265625q0.359375 0.984375 1.0 1.671875q0.65625 0.6875 1.546875 1.0625q0.90625 0.359375 1.984375 0.359375zm11.224945 -8.28125q0.84375 0 1.5625 0.28125q0.71875 0.28125 1.234375 0.828125q0.53125 0.53125 0.8125 1.328125q0.296875 0.78125 0.296875 1.78125q0 0.390625 -0.078125 0.53125q-0.078125 0.125 -0.3125 0.125l-6.296875 0q0.015625 0.890625 0.234375 1.5625q0.234375 0.65625 0.625 1.109375q0.390625 0.4375 0.9375 0.65625q0.546875 0.21875 1.203125 0.21875q0.625 0 1.078125 -0.140625q0.453125 -0.15625 0.78125 -0.3125q0.328125 -0.171875 0.546875 -0.3125q0.21875 -0.15625 0.375 -0.15625q0.21875 0 0.328125 0.15625l0.46875 0.609375q-0.3125 0.375 -0.75 0.65625q-0.421875 0.265625 -0.921875 0.453125q-0.484375 0.171875 -1.015625 0.25q-0.515625 0.09375 -1.015625 0.09375q-0.984375 0 -1.8125 -0.328125q-0.828125 -0.328125 -1.4375 -0.96875q-0.59375 -0.640625 -0.9375 -1.578125q-0.328125 -0.9375 -0.328125 -2.171875q0 -0.984375 0.296875 -1.84375q0.3125 -0.859375 0.875 -1.484375q0.578125 -0.625 1.390625 -0.984375q0.828125 -0.359375 1.859375 -0.359375zm0.03125 1.21875q-1.203125 0 -1.890625 0.703125q-0.6875 0.6875 -0.859375 1.921875l5.140625 0q0 -0.578125 -0.171875 -1.0625q-0.15625 -0.484375 -0.46875 -0.828125q-0.296875 -0.359375 -0.75 -0.546875q-0.4375 -0.1875 -1.0 -0.1875zm5.994629 8.375l0 -9.453125l0.984375 0q0.359375 0 0.453125 0.34375l0.125 1.03125q0.625 -0.6875 1.375 -1.09375q0.765625 -0.421875 1.765625 -0.421875q0.78125 0 1.359375 0.265625q0.59375 0.25 0.984375 0.71875q0.40625 0.46875 0.609375 1.140625q0.203125 0.65625 0.203125 1.453125l0 6.015625l-1.65625 0l0 -6.015625q0 -1.078125 -0.5 -1.671875q-0.484375 -0.59375 -1.484375 -0.59375q-0.734375 0 -1.375 0.359375q-0.640625 0.359375 -1.1875 0.96875l0 6.953125l-1.65625 0zm14.122879 -9.59375q0.84375 0 1.5625 0.28125q0.71875 0.28125 1.234375 0.828125q0.53125 0.53125 0.8125 1.328125q0.296875 0.78125 0.296875 1.78125q0 0.390625 -0.078125 0.53125q-0.078125 0.125 -0.3125 0.125l-6.296875 0q0.015625 0.890625 0.234375 1.5625q0.234375 0.65625 0.625 1.109375q0.390625 0.4375 0.9375 0.65625q0.546875 0.21875 1.203125 0.21875q0.625 0 1.078125 -0.140625q0.453125 -0.15625 0.78125 -0.3125q0.328125 -0.171875 0.546875 -0.3125q0.21875 -0.15625 0.375 -0.15625q0.21875 0 0.328125 0.15625l0.46875 0.609375q-0.3125 0.375 -0.75 0.65625q-0.421875 0.265625 -0.921875 0.453125q-0.484375 0.171875 -1.015625 0.25q-0.515625 0.09375 -1.015625 0.09375q-0.984375 0 -1.8125 -0.328125q-0.828125 -0.328125 -1.4375 -0.96875q-0.59375 -0.640625 -0.9375 -1.578125q-0.328125 -0.9375 -0.328125 -2.171875q0 -0.984375 0.296875 -1.84375q0.3125 -0.859375 0.875 -1.484375q0.578125 -0.625 1.390625 -0.984375q0.828125 -0.359375 1.859375 -0.359375zm0.03125 1.21875q-1.203125 0 -1.890625 0.703125q-0.6875 0.6875 -0.859375 1.921875l5.140625 0q0 -0.578125 -0.171875 -1.0625q-0.15625 -0.484375 -0.46875 -0.828125q-0.296875 -0.359375 -0.75 -0.546875q-0.4375 -0.1875 -1.0 -0.1875zm5.994629 8.375l0 -9.453125l0.953125 0q0.265625 0 0.375 0.109375q0.109375 0.09375 0.140625 0.34375l0.109375 1.484375q0.484375 -0.984375 1.1875 -1.546875q0.71875 -0.5625 1.6875 -0.5625q0.390625 0 0.703125 0.09375q0.328125 0.09375 0.59375 0.25l-0.21875 1.234375q-0.0625 0.234375 -0.28125 0.234375q-0.140625 0 -0.40625 -0.078125q-0.265625 -0.09375 -0.75 -0.09375q-0.875 0 -1.453125 0.5q-0.578125 0.5 -0.984375 1.46875l0 6.015625l-1.65625 0zm14.101303 0l-0.734375 0q-0.234375 0 -0.390625 -0.078125q-0.140625 -0.078125 -0.1875 -0.3125l-0.1875 -0.875q-0.375 0.328125 -0.734375 0.59375q-0.359375 0.265625 -0.75 0.453125q-0.390625 0.1875 -0.828125 0.28125q-0.4375 0.09375 -0.984375 0.09375q-0.546875 0 -1.03125 -0.15625q-0.484375 -0.15625 -0.84375 -0.46875q-0.34375 -0.3125 -0.5625 -0.78125q-0.203125 -0.46875 -0.203125 -1.109375q0 -0.5625 0.296875 -1.078125q0.3125 -0.515625 1.0 -0.90625q0.6875 -0.40625 1.796875 -0.65625q1.109375 -0.265625 2.71875 -0.3125l0 -0.734375q0 -1.09375 -0.46875 -1.65625q-0.46875 -0.578125 -1.40625 -0.578125q-0.59375 0 -1.015625 0.15625q-0.40625 0.15625 -0.71875 0.359375q-0.296875 0.1875 -0.515625 0.34375q-0.21875 0.140625 -0.4375 0.140625q-0.171875 0 -0.296875 -0.078125q-0.125 -0.09375 -0.203125 -0.21875l-0.296875 -0.53125q0.78125 -0.765625 1.6875 -1.140625q0.90625 -0.375 2.015625 -0.375q0.78125 0 1.390625 0.265625q0.625 0.265625 1.046875 0.734375q0.421875 0.46875 0.625 1.125q0.21875 0.65625 0.21875 1.453125l0 6.046875zm-4.296875 -1.015625q0.4375 0 0.796875 -0.078125q0.359375 -0.09375 0.671875 -0.25q0.328125 -0.171875 0.625 -0.40625q0.296875 -0.234375 0.578125 -0.53125l0 -1.96875q-1.15625 0.03125 -1.953125 0.1875q-0.796875 0.140625 -1.3125 0.375q-0.5 0.234375 -0.734375 0.546875q-0.21875 0.3125 -0.21875 0.703125q0 0.375 0.125 0.65625q0.125 0.265625 0.328125 0.4375q0.203125 0.171875 0.484375 0.25q0.28125 0.078125 0.609375 0.078125zm9.677475 1.171875q-1.109375 0 -1.71875 -0.625q-0.59375 -0.625 -0.59375 -1.8125l0 -5.78125l-1.140625 0q-0.15625 0 -0.265625 -0.078125q-0.09375 -0.09375 -0.09375 -0.28125l0 -0.65625l1.546875 -0.203125l0.390625 -2.921875q0.015625 -0.140625 0.109375 -0.21875q0.109375 -0.09375 0.265625 -0.09375l0.84375 0l0 3.25l2.703125 0l0 1.203125l-2.703125 0l0 5.671875q0 0.59375 0.28125 0.890625q0.296875 0.28125 0.75 0.28125q0.265625 0 0.453125 -0.0625q0.203125 -0.078125 0.328125 -0.15625q0.140625 -0.078125 0.234375 -0.140625q0.109375 -0.078125 0.1875 -0.078125q0.125 0 0.234375 0.15625l0.484375 0.796875q-0.4375 0.390625 -1.046875 0.625q-0.59375 0.234375 -1.25 0.234375zm7.927536 -9.75q1.03125 0 1.859375 0.34375q0.84375 0.34375 1.421875 0.984375q0.59375 0.625 0.90625 1.53125q0.3125 0.890625 0.3125 2.0q0 1.125 -0.3125 2.03125q-0.3125 0.890625 -0.90625 1.53125q-0.578125 0.625 -1.421875 0.96875q-0.828125 0.328125 -1.859375 0.328125q-1.03125 0 -1.875 -0.328125q-0.828125 -0.34375 -1.421875 -0.96875q-0.578125 -0.640625 -0.90625 -1.53125q-0.3125 -0.90625 -0.3125 -2.03125q0 -1.109375 0.3125 -2.0q0.328125 -0.90625 0.90625 -1.53125q0.59375 -0.640625 1.421875 -0.984375q0.84375 -0.34375 1.875 -0.34375zm0 8.421875q1.390625 0 2.078125 -0.9375q0.703125 -0.9375 0.703125 -2.609375q0 -1.6875 -0.703125 -2.625q-0.6875 -0.953125 -2.078125 -0.953125q-0.703125 0 -1.234375 0.25q-0.515625 0.234375 -0.875 0.703125q-0.34375 0.453125 -0.515625 1.125q-0.171875 0.65625 -0.171875 1.5q0 0.84375 0.171875 1.5q0.171875 0.65625 0.515625 1.109375q0.359375 0.453125 0.875 0.703125q0.53125 0.234375 1.234375 0.234375zm6.544754 1.171875l0 -9.453125l0.953125 0q0.265625 0 0.375 0.109375q0.109375 0.09375 0.140625 0.34375l0.109375 1.484375q0.484375 -0.984375 1.1875 -1.546875q0.71875 -0.5625 1.6875 -0.5625q0.390625 0 0.703125 0.09375q0.328125 0.09375 0.59375 0.25l-0.21875 1.234375q-0.0625 0.234375 -0.28125 0.234375q-0.140625 0 -0.40625 -0.078125q-0.265625 -0.09375 -0.75 -0.09375q-0.875 0 -1.453125 0.5q-0.578125 0.5 -0.984375 1.46875l0 6.015625l-1.65625 0z" fill-rule="nonzero"/><path fill="#efefef" d="m405.68896 297.89523l0 0c0 -5.752014 4.6629333 -10.414917 10.414917 -10.414917l126.036316 0c2.762207 0 5.411316 1.09729 7.364441 3.0504456c1.953186 1.953186 3.050476 4.6022644 3.050476 7.3644714l0 41.658356c0 5.752014 -4.662903 10.414917 -10.414917 10.414917l-126.036316 0c-5.7519836 0 -10.414917 -4.662903 -10.414917 -10.414917z" fill-rule="evenodd"/><path stroke="#666666" stroke-width="1.0" stroke-linejoin="round" stroke-linecap="butt" d="m405.68896 297.89523l0 0c0 -5.752014 4.6629333 -10.414917 10.414917 -10.414917l126.036316 0c2.762207 0 5.411316 1.09729 7.364441 3.0504456c1.953186 1.953186 3.050476 4.6022644 3.050476 7.3644714l0 41.658356c0 5.752014 -4.662903 10.414917 -10.414917 10.414917l-126.036316 0c-5.7519836 0 -10.414917 -4.662903 -10.414917 -10.414917z" fill-rule="evenodd"/><path fill="#000000" d="m443.50607 314.36316q-0.078125 0.140625 -0.171875 0.21875q-0.09375 0.0625 -0.25 0.0625q-0.15625 0 -0.375 -0.15625q-0.203125 -0.15625 -0.53125 -0.34375q-0.3125 -0.203125 -0.765625 -0.359375q-0.453125 -0.15625 -1.09375 -0.15625q-0.609375 0 -1.078125 0.171875q-0.46875 0.15625 -0.78125 0.4375q-0.3125 0.28125 -0.46875 0.65625q-0.15625 0.375 -0.15625 0.8125q0 0.5625 0.265625 0.9375q0.28125 0.359375 0.734375 0.625q0.453125 0.265625 1.03125 0.453125q0.578125 0.1875 1.171875 0.390625q0.609375 0.203125 1.171875 0.46875q0.578125 0.25 1.03125 0.640625q0.453125 0.390625 0.71875 0.96875q0.28125 0.5625 0.28125 1.390625q0 0.875 -0.296875 1.65625q-0.296875 0.765625 -0.875 1.34375q-0.5625 0.5625 -1.40625 0.890625q-0.828125 0.328125 -1.890625 0.328125q-1.296875 0 -2.375 -0.46875q-1.0625 -0.484375 -1.8125 -1.28125l0.515625 -0.859375q0.078125 -0.109375 0.1875 -0.171875q0.109375 -0.078125 0.234375 -0.078125q0.1875 0 0.4375 0.21875q0.265625 0.203125 0.640625 0.46875q0.375 0.25 0.90625 0.453125q0.546875 0.203125 1.3125 0.203125q0.640625 0 1.140625 -0.171875q0.515625 -0.171875 0.859375 -0.484375q0.359375 -0.328125 0.546875 -0.78125q0.1875 -0.453125 0.1875 -1.0q0 -0.609375 -0.28125 -0.984375q-0.28125 -0.390625 -0.734375 -0.65625q-0.4375 -0.265625 -1.015625 -0.4375q-0.5625 -0.1875 -1.171875 -0.375q-0.59375 -0.203125 -1.171875 -0.453125q-0.578125 -0.25 -1.03125 -0.640625q-0.4375 -0.40625 -0.71875 -1.0q-0.265625 -0.609375 -0.265625 -1.5q0 -0.703125 0.265625 -1.359375q0.28125 -0.671875 0.796875 -1.1875q0.53125 -0.515625 1.296875 -0.8125q0.765625 -0.3125 1.765625 -0.3125q1.125 0 2.046875 0.359375q0.921875 0.34375 1.609375 1.015625l-0.4375 0.859375zm4.2159424 1.828125l0 6.03125q0 1.078125 0.484375 1.671875q0.5 0.578125 1.5 0.578125q0.734375 0 1.375 -0.34375q0.640625 -0.34375 1.1875 -0.96875l0 -6.96875l1.65625 0l0 9.453125l-0.984375 0q-0.359375 0 -0.453125 -0.34375l-0.125 -1.015625q-0.625 0.671875 -1.390625 1.09375q-0.765625 0.421875 -1.75 0.421875q-0.765625 0 -1.359375 -0.25q-0.59375 -0.265625 -1.0 -0.734375q-0.390625 -0.46875 -0.59375 -1.125q-0.203125 -0.671875 -0.203125 -1.46875l0 -6.03125l1.65625 0zm8.935364 12.65625l0 -12.65625l0.984375 0q0.359375 0 0.453125 0.34375l0.140625 1.125q0.609375 -0.734375 1.390625 -1.1875q0.78125 -0.453125 1.796875 -0.453125q0.8125 0 1.46875 0.3125q0.65625 0.3125 1.125 0.9375q0.46875 0.609375 0.71875 1.515625q0.25 0.90625 0.25 2.078125q0 1.046875 -0.28125 1.953125q-0.28125 0.890625 -0.796875 1.546875q-0.515625 0.65625 -1.28125 1.03125q-0.765625 0.375 -1.71875 0.375q-0.875 0 -1.5 -0.28125q-0.609375 -0.296875 -1.09375 -0.828125l0 4.1875l-1.65625 0zm4.203125 -11.484375q-0.8125 0 -1.421875 0.375q-0.609375 0.375 -1.125 1.0625l0 4.5625q0.46875 0.625 1.015625 0.875q0.546875 0.25 1.21875 0.25q1.3125 0 2.015625 -0.9375q0.703125 -0.953125 0.703125 -2.6875q0 -0.921875 -0.15625 -1.578125q-0.15625 -0.671875 -0.46875 -1.09375q-0.3125 -0.421875 -0.765625 -0.625q-0.4375 -0.203125 -1.015625 -0.203125zm9.845123 -1.3125q0.84375 0 1.5625 0.28125q0.7187805 0.28125 1.2344055 0.828125q0.53125 0.53125 0.8125 1.328125q0.296875 0.78125 0.296875 1.78125q0 0.390625 -0.078125 0.53125q-0.078125 0.125 -0.3125 0.125l-6.2969055 0q0.015625 0.890625 0.234375 1.5625q0.234375 0.65625 0.625 1.109375q0.390625 0.4375 0.9375 0.65625q0.546875 0.21875 1.203125 0.21875q0.625 0 1.078125 -0.140625q0.453125 -0.15625 0.7812805 -0.3125q0.328125 -0.171875 0.546875 -0.3125q0.21875 -0.15625 0.375 -0.15625q0.21875 0 0.328125 0.15625l0.46875 0.609375q-0.3125 0.375 -0.75 0.65625q-0.421875 0.265625 -0.921875 0.453125q-0.48440552 0.171875 -1.0156555 0.25q-0.515625 0.09375 -1.015625 0.09375q-0.984375 0 -1.8125 -0.328125q-0.828125 -0.328125 -1.4375 -0.96875q-0.59375 -0.640625 -0.9375 -1.578125q-0.328125 -0.9375 -0.328125 -2.171875q0 -0.984375 0.296875 -1.84375q0.3125 -0.859375 0.875 -1.484375q0.578125 -0.625 1.390625 -0.984375q0.828125 -0.359375 1.859375 -0.359375zm0.03125 1.21875q-1.203125 0 -1.890625 0.703125q-0.6875 0.6875 -0.859375 1.921875l5.1406555 0q0 -0.578125 -0.171875 -1.0625q-0.15625 -0.484375 -0.46878052 -0.828125q-0.296875 -0.359375 -0.75 -0.546875q-0.4375 -0.1875 -1.0 -0.1875zm5.9946594 8.375l0 -9.453125l0.953125 0q0.265625 0 0.375 0.109375q0.109375 0.09375 0.140625 0.34375l0.109375 1.484375q0.484375 -0.984375 1.1875 -1.546875q0.71875 -0.5625 1.6875 -0.5625q0.390625 0 0.703125 0.09375q0.328125 0.09375 0.59375 0.25l-0.21875 1.234375q-0.0625 0.234375 -0.28125 0.234375q-0.140625 0 -0.40625 -0.078125q-0.265625 -0.09375 -0.75 -0.09375q-0.875 0 -1.453125 0.5q-0.578125 0.5 -0.984375 1.46875l0 6.015625l-1.65625 0zm6.330963 -9.453125l1.359375 0q0.1875 0 0.3125 0.109375q0.140625 0.09375 0.203125 0.234375l2.390625 6.09375q0.140625 0.328125 0.203125 0.671875q0.078125 0.328125 0.140625 0.65625q0.078125 -0.328125 0.15625 -0.65625q0.09375 -0.34375 0.21875 -0.671875l2.421875 -6.09375q0.0625 -0.140625 0.1875 -0.234375q0.125 -0.109375 0.3125 -0.109375l1.296875 0l-3.859375 9.453125l-1.5 0l-3.84375 -9.453125zm12.583252 0l0 9.453125l-1.65625 0l0 -9.453125l1.65625 0zm0.375 -2.96875q0 0.25 -0.09375 0.46875q-0.09375 0.203125 -0.265625 0.375q-0.15625 0.15625 -0.375 0.25q-0.21875 0.09375 -0.453125 0.09375q-0.25 0 -0.46875 -0.09375q-0.203125 -0.09375 -0.359375 -0.25q-0.15625 -0.171875 -0.25 -0.375q-0.09375 -0.21875 -0.09375 -0.46875q0 -0.234375 0.09375 -0.453125q0.09375 -0.21875 0.25 -0.375q0.15625 -0.171875 0.359375 -0.265625q0.21875 -0.09375 0.46875 -0.09375q0.234375 0 0.453125 0.09375q0.21875 0.09375 0.375 0.265625q0.171875 0.15625 0.265625 0.375q0.09375 0.21875 0.09375 0.453125zm7.963501 4.53125q-0.109375 0.203125 -0.34375 0.203125q-0.140625 0 -0.3125 -0.09375q-0.171875 -0.109375 -0.4375 -0.234375q-0.25 -0.125 -0.609375 -0.234375q-0.359375 -0.109375 -0.84375 -0.109375q-0.40625 0 -0.75 0.109375q-0.328125 0.109375 -0.578125 0.296875q-0.234375 0.1875 -0.359375 0.4375q-0.125 0.234375 -0.125 0.53125q0 0.359375 0.203125 0.609375q0.21875 0.234375 0.5625 0.421875q0.34375 0.171875 0.78125 0.3125q0.4375 0.125 0.890625 0.28125q0.46875 0.15625 0.90625 0.34375q0.4375 0.1875 0.78125 0.46875q0.359375 0.28125 0.5625 0.6875q0.203125 0.40625 0.203125 0.96875q0 0.65625 -0.234375 1.21875q-0.21875 0.546875 -0.6875 0.953125q-0.453125 0.40625 -1.125 0.640625q-0.65625 0.234375 -1.515625 0.234375q-0.984375 0 -1.796875 -0.328125q-0.796875 -0.328125 -1.359375 -0.828125l0.390625 -0.625q0.078125 -0.125 0.171875 -0.1875q0.109375 -0.078125 0.28125 -0.078125q0.15625 0 0.34375 0.140625q0.1875 0.125 0.453125 0.28125q0.265625 0.15625 0.640625 0.296875q0.390625 0.125 0.953125 0.125q0.484375 0 0.84375 -0.125q0.375 -0.125 0.609375 -0.328125q0.25 -0.21875 0.359375 -0.5q0.125 -0.28125 0.125 -0.609375q0 -0.390625 -0.21875 -0.640625q-0.203125 -0.25 -0.546875 -0.4375q-0.34375 -0.1875 -0.796875 -0.3125q-0.4375 -0.140625 -0.90625 -0.28125q-0.453125 -0.15625 -0.90625 -0.34375q-0.4375 -0.203125 -0.78125 -0.484375q-0.34375 -0.296875 -0.5625 -0.71875q-0.203125 -0.421875 -0.203125 -1.03125q0 -0.53125 0.21875 -1.03125q0.234375 -0.5 0.65625 -0.875q0.4375 -0.390625 1.0625 -0.609375q0.625 -0.21875 1.421875 -0.21875q0.9375 0 1.671875 0.296875q0.75 0.28125 1.28125 0.796875l-0.375 0.609375zm6.5186768 -1.703125q1.03125 0 1.859375 0.34375q0.84375 0.34375 1.421875 0.984375q0.59375 0.625 0.90625 1.53125q0.3125 0.890625 0.3125 2.0q0 1.125 -0.3125 2.03125q-0.3125 0.890625 -0.90625 1.53125q-0.578125 0.625 -1.421875 0.96875q-0.828125 0.328125 -1.859375 0.328125q-1.03125 0 -1.875 -0.328125q-0.828125 -0.34375 -1.421875 -0.96875q-0.578125 -0.640625 -0.90625 -1.53125q-0.3125 -0.90625 -0.3125 -2.03125q0 -1.109375 0.3125 -2.0q0.328125 -0.90625 0.90625 -1.53125q0.59375 -0.640625 1.421875 -0.984375q0.84375 -0.34375 1.875 -0.34375zm0 8.421875q1.390625 0 2.078125 -0.9375q0.703125 -0.9375 0.703125 -2.609375q0 -1.6875 -0.703125 -2.625q-0.6875 -0.953125 -2.078125 -0.953125q-0.703125 0 -1.234375 0.25q-0.515625 0.234375 -0.875 0.703125q-0.34375 0.453125 -0.515625 1.125q-0.171875 0.65625 -0.171875 1.5q0 0.84375 0.171875 1.5q0.171875 0.65625 0.515625 1.109375q0.359375 0.453125 0.875 0.703125q0.53125 0.234375 1.234375 0.234375zm6.544739 1.171875l0 -9.453125l0.953125 0q0.265625 0 0.375 0.109375q0.109375 0.09375 0.140625 0.34375l0.109375 1.484375q0.484375 -0.984375 1.1875 -1.546875q0.71875 -0.5625 1.6875 -0.5625q0.390625 0 0.703125 0.09375q0.328125 0.09375 0.59375 0.25l-0.21875 1.234375q-0.0625 0.234375 -0.28125 0.234375q-0.140625 0 -0.40625 -0.078125q-0.265625 -0.09375 -0.75 -0.09375q-0.875 0 -1.453125 0.5q-0.578125 0.5 -0.984375 1.46875l0 6.015625l-1.65625 0z" fill-rule="nonzero"/><path fill="#efefef" d="m133.18898 66.399155l0 0c0 -5.7519913 4.662903 -10.414902 10.414902 -10.414902l126.036316 0c2.762207 0 5.4112854 1.0972824 7.3644714 3.0504532c1.9531555 1.9531746 3.0504456 4.602249 3.0504456 7.3644485l0 41.65838c0 5.751999 -4.662903 10.414909 -10.414917 10.414909l-126.036316 0c-5.751999 0 -10.414902 -4.6629105 -10.414902 -10.414909z" fill-rule="evenodd"/><path stroke="#666666" stroke-width="1.0" stroke-linejoin="round" stroke-linecap="butt" d="m133.18898 66.399155l0 0c0 -5.7519913 4.662903 -10.414902 10.414902 -10.414902l126.036316 0c2.762207 0 5.4112854 1.0972824 7.3644714 3.0504532c1.9531555 1.9531746 3.0504456 4.602249 3.0504456 7.3644485l0 41.65838c0 5.751999 -4.662903 10.414909 -10.414917 10.414909l-126.036316 0c-5.751999 0 -10.414902 -4.6629105 -10.414902 -10.414909z" fill-rule="evenodd"/><path fill="#000000" d="m182.47107 80.773346l0 1.484375l-6.421875 0l0 4.4375l5.203125 0l0 1.421875l-5.203125 0l0 4.5625l6.421875 0l0 1.46875l-8.234375 0l0 -13.375l8.234375 0zm2.3392792 13.375l0 -9.453125l0.984375 0q0.359375 0 0.453125 0.34375l0.125 1.03125q0.625 -0.6875 1.375 -1.09375q0.765625 -0.421875 1.765625 -0.421875q0.78125 0 1.359375 0.265625q0.59375 0.25 0.984375 0.71875q0.40625 0.46875 0.609375 1.140625q0.203125 0.65625 0.203125 1.453125l0 6.015625l-1.65625 0l0 -6.015625q0 -1.078125 -0.5 -1.671875q-0.484375 -0.59375 -1.484375 -0.59375q-0.734375 0 -1.375 0.359375q-0.640625 0.359375 -1.1875 0.96875l0 6.953125l-1.65625 0zm16.826004 -7.765625q-0.078125 0.09375 -0.15625 0.15625q-0.078125 0.046875 -0.21875 0.046875q-0.140625 0 -0.296875 -0.109375q-0.15625 -0.109375 -0.421875 -0.25q-0.25 -0.140625 -0.609375 -0.25q-0.359375 -0.125 -0.875 -0.125q-0.6875 0 -1.21875 0.25q-0.53125 0.234375 -0.890625 0.703125q-0.359375 0.46875 -0.546875 1.140625q-0.1875 0.65625 -0.1875 1.46875q0 0.859375 0.203125 1.53125q0.203125 0.671875 0.546875 1.125q0.359375 0.453125 0.859375 0.6875q0.515625 0.234375 1.15625 0.234375q0.59375 0 0.984375 -0.140625q0.390625 -0.15625 0.65625 -0.328125q0.265625 -0.171875 0.421875 -0.3125q0.171875 -0.15625 0.34375 -0.15625q0.21875 0 0.3125 0.15625l0.46875 0.609375q-0.609375 0.765625 -1.53125 1.109375q-0.921875 0.34375 -1.953125 0.34375q-0.890625 0 -1.65625 -0.3125q-0.75 -0.328125 -1.3125 -0.953125q-0.5625 -0.625 -0.890625 -1.53125q-0.3125 -0.90625 -0.3125 -2.0625q0 -1.046875 0.296875 -1.9375q0.296875 -0.90625 0.859375 -1.546875q0.5625 -0.65625 1.390625 -1.015625q0.828125 -0.359375 1.90625 -0.359375q0.984375 0 1.75 0.328125q0.765625 0.3125 1.359375 0.890625l-0.4375 0.609375zm6.0874634 -1.828125q1.03125 0 1.859375 0.34375q0.84375 0.34375 1.421875 0.984375q0.59375 0.625 0.90625 1.53125q0.3125 0.890625 0.3125 2.0q0 1.125 -0.3125 2.03125q-0.3125 0.890625 -0.90625 1.53125q-0.578125 0.625 -1.421875 0.96875q-0.828125 0.328125 -1.859375 0.328125q-1.03125 0 -1.875 -0.328125q-0.828125 -0.34375 -1.421875 -0.96875q-0.578125 -0.640625 -0.90625 -1.53125q-0.3125 -0.90625 -0.3125 -2.03125q0 -1.109375 0.3125 -2.0q0.328125 -0.90625 0.90625 -1.53125q0.59375 -0.640625 1.421875 -0.984375q0.84375 -0.34375 1.875 -0.34375zm0 8.421875q1.390625 0 2.078125 -0.9375q0.703125 -0.9375 0.703125 -2.609375q0 -1.6875 -0.703125 -2.625q-0.6875 -0.953125 -2.078125 -0.953125q-0.703125 0 -1.234375 0.25q-0.515625 0.234375 -0.875 0.703125q-0.34375 0.453125 -0.515625 1.125q-0.171875 0.65625 -0.171875 1.5q0 0.84375 0.171875 1.5q0.171875 0.65625 0.515625 1.109375q0.359375 0.453125 0.875 0.703125q0.53125 0.234375 1.234375 0.234375zm13.201004 1.171875q-0.359375 0 -0.453125 -0.34375l-0.140625 -1.15625q-0.609375 0.75 -1.390625 1.1875q-0.78125 0.4375 -1.78125 0.4375q-0.8125 0 -1.484375 -0.3125q-0.65625 -0.3125 -1.125 -0.90625q-0.46875 -0.609375 -0.71875 -1.515625q-0.25 -0.90625 -0.25 -2.078125q0 -1.046875 0.28125 -1.9375q0.28125 -0.90625 0.796875 -1.5625q0.53125 -0.671875 1.28125 -1.046875q0.765625 -0.390625 1.71875 -0.390625q0.875 0 1.484375 0.296875q0.625 0.296875 1.109375 0.828125l0 -5.234375l1.65625 0l0 13.734375l-0.984375 0zm-3.21875 -1.21875q0.8125 0 1.421875 -0.359375q0.609375 -0.375 1.125 -1.0625l0 -4.5625q-0.453125 -0.625 -1.0 -0.875q-0.546875 -0.25 -1.21875 -0.25q-1.3125 0 -2.03125 0.953125q-0.703125 0.9375 -0.703125 2.6875q0 0.921875 0.15625 1.578125q0.15625 0.65625 0.46875 1.078125q0.3125 0.421875 0.75 0.625q0.453125 0.1875 1.03125 0.1875zm10.741348 -8.375q0.84375 0 1.5625 0.28125q0.71875 0.28125 1.234375 0.828125q0.53125 0.53125 0.8125 1.328125q0.296875 0.78125 0.296875 1.78125q0 0.390625 -0.078125 0.53125q-0.078125 0.125 -0.3125 0.125l-6.296875 0q0.015625 0.890625 0.234375 1.5625q0.234375 0.65625 0.625 1.109375q0.390625 0.4375 0.9375 0.65625q0.546875 0.21875 1.203125 0.21875q0.625 0 1.078125 -0.140625q0.453125 -0.15625 0.78125 -0.3125q0.328125 -0.171875 0.546875 -0.3125q0.21875 -0.15625 0.375 -0.15625q0.21875 0 0.328125 0.15625l0.46875 0.609375q-0.3125 0.375 -0.75 0.65625q-0.421875 0.265625 -0.921875 0.453125q-0.484375 0.171875 -1.015625 0.25q-0.515625 0.09375 -1.015625 0.09375q-0.984375 0 -1.8125 -0.328125q-0.828125 -0.328125 -1.4375 -0.96875q-0.59375 -0.640625 -0.9375 -1.578125q-0.328125 -0.9375 -0.328125 -2.171875q0 -0.984375 0.296875 -1.84375q0.3125 -0.859375 0.875 -1.484375q0.578125 -0.625 1.390625 -0.984375q0.828125 -0.359375 1.859375 -0.359375zm0.03125 1.21875q-1.203125 0 -1.890625 0.703125q-0.6875 0.6875 -0.859375 1.921875l5.140625 0q0 -0.578125 -0.171875 -1.0625q-0.15625 -0.484375 -0.46875 -0.828125q-0.296875 -0.359375 -0.75 -0.546875q-0.4375 -0.1875 -1.0 -0.1875zm5.994629 8.375l0 -9.453125l0.953125 0q0.265625 0 0.375 0.109375q0.109375 0.09375 0.140625 0.34375l0.109375 1.484375q0.484375 -0.984375 1.1875 -1.546875q0.71875 -0.5625 1.6875 -0.5625q0.390625 0 0.703125 0.09375q0.328125 0.09375 0.59375 0.25l-0.21875 1.234375q-0.0625 0.234375 -0.28125 0.234375q-0.140625 0 -0.40625 -0.078125q-0.265625 -0.09375 -0.75 -0.09375q-0.875 0 -1.453125 0.5q-0.578125 0.5 -0.984375 1.46875l0 6.015625l-1.65625 0z" fill-rule="nonzero"/><path fill="#efefef" d="m407.78217 66.399155l0 0c0 -5.7519913 4.662903 -10.414902 10.414886 -10.414902l126.03635 0c2.762207 0 5.411255 1.0972824 7.364441 3.0504532c1.953186 1.9531746 3.050476 4.602249 3.050476 7.3644485l0 41.65838c0 5.751999 -4.662964 10.414909 -10.414917 10.414909l-126.03635 0c-5.7519836 0 -10.414886 -4.6629105 -10.414886 -10.414909z" fill-rule="evenodd"/><path stroke="#666666" stroke-width="1.0" stroke-linejoin="round" stroke-linecap="butt" d="m407.78217 66.399155l0 0c0 -5.7519913 4.662903 -10.414902 10.414886 -10.414902l126.03635 0c2.762207 0 5.411255 1.0972824 7.364441 3.0504532c1.953186 1.9531746 3.050476 4.602249 3.050476 7.3644485l0 41.65838c0 5.751999 -4.662964 10.414909 -10.414917 10.414909l-126.03635 0c-5.7519836 0 -10.414886 -4.6629105 -10.414886 -10.414909z" fill-rule="evenodd"/><path fill="#000000" d="m459.10205 87.47647q0 1.5 -0.484375 2.734375q-0.46875 1.21875 -1.34375 2.109375q-0.859375 0.875 -2.078125 1.359375q-1.203125 0.46875 -2.671875 0.46875l-5.0 0l0 -13.375l5.0 0q1.46875 0 2.671875 0.484375q1.21875 0.484375 2.078125 1.375q0.875 0.875 1.34375 2.109375q0.484375 1.21875 0.484375 2.734375zm-1.84375 0q0 -1.234375 -0.34375 -2.203125q-0.328125 -0.96875 -0.953125 -1.640625q-0.609375 -0.671875 -1.484375 -1.03125q-0.875 -0.359375 -1.953125 -0.359375l-3.1875 0l0 10.4375l3.1875 0q1.078125 0 1.953125 -0.34375q0.875 -0.359375 1.484375 -1.015625q0.625 -0.671875 0.953125 -1.640625q0.34375 -0.984375 0.34375 -2.203125zm7.7981567 -2.921875q0.84375 0 1.5625 0.28125q0.71875 0.28125 1.234375 0.828125q0.53125 0.53125 0.8125 1.328125q0.296875 0.78125 0.296875 1.78125q0 0.390625 -0.078125 0.53125q-0.078125 0.125 -0.3125 0.125l-6.296875 0q0.015625 0.890625 0.234375 1.5625q0.234375 0.65625 0.625 1.109375q0.390625 0.4375 0.9375 0.65625q0.546875 0.21875 1.203125 0.21875q0.625 0 1.078125 -0.140625q0.453125 -0.15625 0.78125 -0.3125q0.328125 -0.171875 0.546875 -0.3125q0.21875 -0.15625 0.375 -0.15625q0.21875 0 0.328125 0.15625l0.46875 0.609375q-0.3125 0.375 -0.75 0.65625q-0.421875 0.265625 -0.921875 0.453125q-0.484375 0.171875 -1.015625 0.25q-0.515625 0.09375 -1.015625 0.09375q-0.984375 0 -1.8125 -0.328125q-0.828125 -0.328125 -1.4375 -0.96875q-0.59375 -0.640625 -0.9375 -1.578125q-0.328125 -0.9375 -0.328125 -2.171875q0 -0.984375 0.296875 -1.84375q0.3125 -0.859375 0.875 -1.484375q0.578125 -0.625 1.390625 -0.984375q0.828125 -0.359375 1.859375 -0.359375zm0.03125 1.21875q-1.203125 0 -1.890625 0.703125q-0.6875 0.6875 -0.859375 1.921875l5.140625 0q0 -0.578125 -0.171875 -1.0625q-0.15625 -0.484375 -0.46875 -0.828125q-0.296875 -0.359375 -0.75 -0.546875q-0.4375 -0.1875 -1.0 -0.1875zm12.447754 0.609375q-0.078125 0.09375 -0.15625 0.15625q-0.078125 0.046875 -0.21875 0.046875q-0.140625 0 -0.296875 -0.109375q-0.15625 -0.109375 -0.421875 -0.25q-0.25 -0.140625 -0.609375 -0.25q-0.359375 -0.125 -0.875 -0.125q-0.6875 0 -1.21875 0.25q-0.53125 0.234375 -0.890625 0.703125q-0.359375 0.46875 -0.546875 1.140625q-0.1875 0.65625 -0.1875 1.46875q0 0.859375 0.203125 1.53125q0.203125 0.671875 0.546875 1.125q0.359375 0.453125 0.859375 0.6875q0.515625 0.234375 1.15625 0.234375q0.59375 0 0.984375 -0.140625q0.390625 -0.15625 0.65625 -0.328125q0.265625 -0.171875 0.421875 -0.3125q0.171875 -0.15625 0.34375 -0.15625q0.21875 0 0.3125 0.15625l0.46875 0.609375q-0.609375 0.765625 -1.53125 1.109375q-0.921875 0.34375 -1.953125 0.34375q-0.890625 0 -1.65625 -0.3125q-0.75 -0.328125 -1.3125 -0.953125q-0.5625 -0.625 -0.890625 -1.53125q-0.3125 -0.90625 -0.3125 -2.0625q0 -1.046875 0.296875 -1.9375q0.296875 -0.90625 0.859375 -1.546875q0.5625 -0.65625 1.390625 -1.015625q0.828125 -0.359375 1.90625 -0.359375q0.984375 0 1.75 0.328125q0.765625 0.3125 1.359375 0.890625l-0.4375 0.609375zm6.0874634 -1.828125q1.03125 0 1.859375 0.34375q0.84375 0.34375 1.421875 0.984375q0.59375 0.625 0.90625 1.53125q0.3125 0.890625 0.3125 2.0q0 1.125 -0.3125 2.03125q-0.3125 0.890625 -0.90625 1.53125q-0.578125 0.625 -1.421875 0.96875q-0.828125 0.328125 -1.859375 0.328125q-1.03125 0 -1.875 -0.328125q-0.828125 -0.34375 -1.421875 -0.96875q-0.578125 -0.640625 -0.90625 -1.53125q-0.3125 -0.90625 -0.3125 -2.03125q0 -1.109375 0.3125 -2.0q0.328125 -0.90625 0.90625 -1.53125q0.59375 -0.640625 1.421875 -0.984375q0.84375 -0.34375 1.875 -0.34375zm0 8.421875q1.390625 0 2.078125 -0.9375q0.703125 -0.9375 0.703125 -2.609375q0 -1.6875 -0.703125 -2.625q-0.6875 -0.953125 -2.078125 -0.953125q-0.703125 0 -1.234375 0.25q-0.515625 0.234375 -0.875 0.703125q-0.34375 0.453125 -0.515625 1.125q-0.171875 0.65625 -0.171875 1.5q0 0.84375 0.171875 1.5q0.171875 0.65625 0.515625 1.109375q0.359375 0.453125 0.875 0.703125q0.53125 0.234375 1.234375 0.234375zm13.201019 1.171875q-0.359375 0 -0.453125 -0.34375l-0.140625 -1.15625q-0.609375 0.75 -1.390625 1.1875q-0.78125 0.4375 -1.78125 0.4375q-0.8125 0 -1.484375 -0.3125q-0.65625 -0.3125 -1.125 -0.90625q-0.46875 -0.609375 -0.71875 -1.515625q-0.25 -0.90625 -0.25 -2.078125q0 -1.046875 0.28125 -1.9375q0.28125 -0.90625 0.796875 -1.5625q0.53125 -0.671875 1.28125 -1.046875q0.765625 -0.390625 1.71875 -0.390625q0.875 0 1.484375 0.296875q0.625 0.296875 1.109375 0.828125l0 -5.234375l1.65625 0l0 13.734375l-0.984375 0zm-3.21875 -1.21875q0.8125 0 1.421875 -0.359375q0.609375 -0.375 1.125 -1.0625l0 -4.5625q-0.453125 -0.625 -1.0 -0.875q-0.546875 -0.25 -1.21875 -0.25q-1.3125 0 -2.03125 0.953125q-0.703125 0.9375 -0.703125 2.6875q0 0.921875 0.15625 1.578125q0.15625 0.65625 0.46875 1.078125q0.3125 0.421875 0.75 0.625q0.453125 0.1875 1.03125 0.1875zm10.741333 -8.375q0.84375 0 1.5625 0.28125q0.71875 0.28125 1.234375 0.828125q0.53125 0.53125 0.8125 1.328125q0.296875 0.78125 0.296875 1.78125q0 0.390625 -0.078125 0.53125q-0.078125 0.125 -0.3125 0.125l-6.296875 0q0.015625 0.890625 0.234375 1.5625q0.234375 0.65625 0.625 1.109375q0.390625 0.4375 0.9375 0.65625q0.546875 0.21875 1.203125 0.21875q0.625 0 1.078125 -0.140625q0.453125 -0.15625 0.78125 -0.3125q0.328125 -0.171875 0.546875 -0.3125q0.21875 -0.15625 0.375 -0.15625q0.21875 0 0.328125 0.15625l0.46875 0.609375q-0.3125 0.375 -0.75 0.65625q-0.421875 0.265625 -0.921875 0.453125q-0.484375 0.171875 -1.015625 0.25q-0.515625 0.09375 -1.015625 0.09375q-0.984375 0 -1.8125 -0.328125q-0.828125 -0.328125 -1.4375 -0.96875q-0.59375 -0.640625 -0.9375 -1.578125q-0.328125 -0.9375 -0.328125 -2.171875q0 -0.984375 0.296875 -1.84375q0.3125 -0.859375 0.875 -1.484375q0.578125 -0.625 1.390625 -0.984375q0.828125 -0.359375 1.859375 -0.359375zm0.03125 1.21875q-1.203125 0 -1.890625 0.703125q-0.6875 0.6875 -0.859375 1.921875l5.140625 0q0 -0.578125 -0.171875 -1.0625q-0.15625 -0.484375 -0.46875 -0.828125q-0.296875 -0.359375 -0.75 -0.546875q-0.4375 -0.1875 -1.0 -0.1875zm5.994629 8.375l0 -9.453125l0.953125 0q0.265625 0 0.375 0.109375q0.109375 0.09375 0.140625 0.34375l0.109375 1.484375q0.48440552 -0.984375 1.1875305 -1.546875q0.71875 -0.5625 1.6875 -0.5625q0.390625 0 0.703125 0.09375q0.328125 0.09375 0.59375 0.25l-0.21875 1.234375q-0.0625 0.234375 -0.28125 0.234375q-0.140625 0 -0.40625 -0.078125q-0.265625 -0.09375 -0.75 -0.09375q-0.875 0 -1.453125 0.5q-0.578125 0.5 -0.984375 1.46875l0 6.015625l-1.6562805 0z" fill-rule="nonzero"/><path fill="#efefef" d="m713.3583 298.5002l0 0c0 -5.752014 4.662903 -10.414917 10.414917 -10.414917l126.036316 0c2.762207 0 5.411316 1.09729 7.364441 3.0504456c1.953186 1.953186 3.050476 4.6022644 3.050476 7.3644714l0 41.658356c0 5.752014 -4.662903 10.414917 -10.414917 10.414917l-126.036316 0c-5.752014 0 -10.414917 -4.662903 -10.414917 -10.414917z" fill-rule="evenodd"/><path stroke="#666666" stroke-width="1.0" stroke-linejoin="round" stroke-linecap="butt" d="m713.3583 298.5002l0 0c0 -5.752014 4.662903 -10.414917 10.414917 -10.414917l126.036316 0c2.762207 0 5.411316 1.09729 7.364441 3.0504456c1.953186 1.953186 3.050476 4.6022644 3.050476 7.3644714l0 41.658356c0 5.752014 -4.662903 10.414917 -10.414917 10.414917l-126.036316 0c-5.752014 0 -10.414917 -4.662903 -10.414917 -10.414917z" fill-rule="evenodd"/><path fill="#000000" d="m746.717 319.26627q0 1.390625 -0.4375 2.546875q-0.4375 1.140625 -1.25 1.953125q-0.8125 0.8125 -1.9375 1.265625q-1.125 0.4375 -2.484375 0.4375l-4.65625 0l0 -12.421875l4.65625 0q1.359375 0 2.484375 0.453125q1.125 0.453125 1.9375 1.265625q0.8125 0.8125 1.25 1.96875q0.4375 1.140625 0.4375 2.53125zm-1.71875 0q0 -1.140625 -0.3125 -2.046875q-0.3125 -0.90625 -0.890625 -1.515625q-0.5625 -0.625 -1.390625 -0.953125q-0.8125 -0.34375 -1.796875 -0.34375l-2.953125 0l0 9.703125l2.953125 0q0.984375 0 1.796875 -0.328125q0.828125 -0.328125 1.390625 -0.9375q0.578125 -0.625 0.890625 -1.53125q0.3125 -0.90625 0.3125 -2.046875zm5.4856567 -2.578125l0 8.78125l-1.546875 0l0 -8.78125l1.546875 0zm0.34375 -2.75q0 0.21875 -0.09375 0.421875q-0.09375 0.1875 -0.25 0.34375q-0.140625 0.15625 -0.34375 0.25q-0.203125 0.078125 -0.421875 0.078125q-0.21875 0 -0.421875 -0.078125q-0.1875 -0.09375 -0.34375 -0.25q-0.15625 -0.15625 -0.25 -0.34375q-0.078125 -0.203125 -0.078125 -0.421875q0 -0.21875 0.078125 -0.421875q0.09375 -0.21875 0.25 -0.359375q0.15625 -0.15625 0.34375 -0.234375q0.203125 -0.09375 0.421875 -0.09375q0.21875 0 0.421875 0.09375q0.203125 0.078125 0.34375 0.234375q0.15625 0.140625 0.25 0.359375q0.09375 0.203125 0.09375 0.421875zm7.404785 4.203125q-0.109375 0.1875 -0.328125 0.1875q-0.125 0 -0.296875 -0.09375q-0.15625 -0.09375 -0.40625 -0.203125q-0.234375 -0.125 -0.5625 -0.21875q-0.328125 -0.109375 -0.78125 -0.109375q-0.390625 0 -0.703125 0.109375q-0.3125 0.09375 -0.53125 0.265625q-0.21875 0.171875 -0.34375 0.40625q-0.109375 0.21875 -0.109375 0.5q0 0.328125 0.1875 0.5625q0.203125 0.21875 0.515625 0.390625q0.328125 0.15625 0.734375 0.28125q0.40625 0.125 0.828125 0.28125q0.4375 0.140625 0.84375 0.3125q0.40625 0.171875 0.71875 0.4375q0.328125 0.25 0.515625 0.625q0.203125 0.375 0.203125 0.90625q0 0.609375 -0.21875 1.125q-0.21875 0.515625 -0.640625 0.890625q-0.421875 0.375 -1.046875 0.59375q-0.609375 0.21875 -1.40625 0.21875q-0.921875 0 -1.671875 -0.296875q-0.734375 -0.296875 -1.265625 -0.765625l0.375 -0.59375q0.0625 -0.109375 0.15625 -0.171875q0.09375 -0.0625 0.25 -0.0625q0.15625 0 0.328125 0.125q0.171875 0.125 0.421875 0.265625q0.25 0.140625 0.59375 0.265625q0.359375 0.125 0.890625 0.125q0.453125 0 0.78125 -0.109375q0.34375 -0.125 0.5625 -0.328125q0.234375 -0.203125 0.34375 -0.453125q0.109375 -0.265625 0.109375 -0.5625q0 -0.359375 -0.203125 -0.59375q-0.1875 -0.234375 -0.515625 -0.40625q-0.3125 -0.171875 -0.734375 -0.296875q-0.40625 -0.125 -0.84375 -0.265625q-0.421875 -0.140625 -0.84375 -0.3125q-0.40625 -0.1875 -0.734375 -0.453125q-0.3125 -0.265625 -0.515625 -0.65625q-0.1875 -0.40625 -0.1875 -0.96875q0 -0.5 0.203125 -0.953125q0.21875 -0.46875 0.609375 -0.8125q0.40625 -0.359375 0.984375 -0.5625q0.578125 -0.21875 1.328125 -0.21875q0.859375 0 1.546875 0.28125q0.703125 0.265625 1.203125 0.75l-0.34375 0.5625zm8.473572 0.109375q-0.0625 0.09375 -0.140625 0.15625q-0.0625 0.046875 -0.203125 0.046875q-0.125 0 -0.28125 -0.109375q-0.140625 -0.109375 -0.375 -0.234375q-0.234375 -0.140625 -0.578125 -0.25q-0.328125 -0.109375 -0.8125 -0.109375q-0.640625 0 -1.140625 0.234375q-0.484375 0.234375 -0.828125 0.671875q-0.328125 0.421875 -0.5 1.046875q-0.15625 0.609375 -0.15625 1.375q0 0.796875 0.171875 1.421875q0.1875 0.609375 0.515625 1.03125q0.328125 0.421875 0.796875 0.640625q0.46875 0.21875 1.0625 0.21875q0.5625 0 0.921875 -0.125q0.375 -0.140625 0.609375 -0.296875q0.25 -0.171875 0.40625 -0.296875q0.15625 -0.140625 0.3125 -0.140625q0.1875 0 0.296875 0.140625l0.421875 0.5625q-0.5625 0.703125 -1.421875 1.03125q-0.859375 0.328125 -1.8125 0.328125q-0.828125 0 -1.53125 -0.296875q-0.703125 -0.3125 -1.234375 -0.890625q-0.515625 -0.578125 -0.8125 -1.40625q-0.296875 -0.84375 -0.296875 -1.921875q0 -0.984375 0.265625 -1.8125q0.28125 -0.828125 0.796875 -1.421875q0.53125 -0.609375 1.296875 -0.953125q0.78125 -0.34375 1.78125 -0.34375q0.90625 0 1.609375 0.3125q0.71875 0.296875 1.265625 0.84375l-0.40625 0.546875zm2.1079712 7.21875l0 -8.78125l0.890625 0q0.25 0 0.34375 0.09375q0.09375 0.09375 0.125 0.328125l0.109375 1.375q0.453125 -0.921875 1.109375 -1.4375q0.65625 -0.515625 1.546875 -0.515625q0.375 0 0.65625 0.09375q0.296875 0.078125 0.5625 0.21875l-0.203125 1.15625q-0.0625 0.21875 -0.265625 0.21875q-0.125 0 -0.375 -0.078125q-0.25 -0.09375 -0.703125 -0.09375q-0.8125 0 -1.359375 0.46875q-0.53125 0.46875 -0.890625 1.359375l0 5.59375l-1.546875 0zm8.702026 -8.78125l0 8.78125l-1.546875 0l0 -8.78125l1.546875 0zm0.34375 -2.75q0 0.21875 -0.09375 0.421875q-0.09375 0.1875 -0.25 0.34375q-0.140625 0.15625 -0.34375 0.25q-0.203125 0.078125 -0.421875 0.078125q-0.21875 0 -0.421875 -0.078125q-0.1875 -0.09375 -0.34375 -0.25q-0.15625 -0.15625 -0.25 -0.34375q-0.078125 -0.203125 -0.078125 -0.421875q0 -0.21875 0.078125 -0.421875q0.09375 -0.21875 0.25 -0.359375q0.15625 -0.15625 0.34375 -0.234375q0.203125 -0.09375 0.421875 -0.09375q0.21875 0 0.421875 0.09375q0.203125 0.078125 0.34375 0.234375q0.15625 0.140625 0.25 0.359375q0.09375 0.203125 0.09375 0.421875zm2.3735352 11.53125l0 -8.78125l0.921875 0q0.328125 0 0.40625 0.328125l0.125 0.890625q0.484375 -0.59375 1.078125 -0.96875q0.609375 -0.390625 1.40625 -0.390625q0.890625 0 1.4375 0.5q0.546875 0.5 0.796875 1.328125q0.171875 -0.46875 0.46875 -0.8125q0.3125 -0.34375 0.671875 -0.5625q0.375 -0.234375 0.796875 -0.34375q0.421875 -0.109375 0.859375 -0.109375q0.6875 0 1.234375 0.234375q0.546875 0.21875 0.921875 0.640625q0.375 0.421875 0.5625 1.046875q0.203125 0.609375 0.203125 1.40625l0 5.59375l-1.53125 0l0 -5.59375q0 -1.03125 -0.453125 -1.5625q-0.453125 -0.53125 -1.3125 -0.53125q-0.375 0 -0.71875 0.140625q-0.34375 0.125 -0.609375 0.390625q-0.25 0.265625 -0.40625 0.65625q-0.15625 0.390625 -0.15625 0.90625l0 5.59375l-1.546875 0l0 -5.59375q0 -1.046875 -0.421875 -1.5625q-0.421875 -0.53125 -1.234375 -0.53125q-0.578125 0 -1.0625 0.3125q-0.484375 0.3125 -0.890625 0.828125l0 6.546875l-1.546875 0zm15.945251 -8.78125l0 8.78125l-1.546875 0l0 -8.78125l1.546875 0zm0.34375 -2.75q0 0.21875 -0.09375 0.421875q-0.09375 0.1875 -0.25 0.34375q-0.140625 0.15625 -0.34375 0.25q-0.203125 0.078125 -0.421875 0.078125q-0.21875 0 -0.421875 -0.078125q-0.1875 -0.09375 -0.34375 -0.25q-0.15625 -0.15625 -0.25 -0.34375q-0.078125 -0.203125 -0.078125 -0.421875q0 -0.21875 0.078125 -0.421875q0.09375 -0.21875 0.25 -0.359375q0.15625 -0.15625 0.34375 -0.234375q0.203125 -0.09375 0.421875 -0.09375q0.21875 0 0.421875 0.09375q0.203125 0.078125 0.34375 0.234375q0.15625 0.140625 0.25 0.359375q0.09375 0.203125 0.09375 0.421875zm2.3735352 11.53125l0 -8.78125l0.921875 0q0.328125 0 0.40625 0.328125l0.125 0.953125q0.578125 -0.640625 1.28125 -1.03125q0.703125 -0.390625 1.625 -0.390625q0.71875 0 1.265625 0.25q0.5625 0.234375 0.921875 0.671875q0.375 0.4375 0.5625 1.0625q0.1875 0.609375 0.1875 1.34375l0 5.59375l-1.53125 0l0 -5.59375q0 -0.984375 -0.46875 -1.53125q-0.453125 -0.5625 -1.375 -0.5625q-0.6875 0 -1.28125 0.328125q-0.59375 0.328125 -1.09375 0.890625l0 6.46875l-1.546875 0zm16.087646 0l-0.6875 0q-0.234375 0 -0.375 -0.0625q-0.125 -0.078125 -0.171875 -0.296875l-0.171875 -0.8125q-0.359375 0.3125 -0.6875 0.5625q-0.328125 0.234375 -0.6875 0.40625q-0.359375 0.171875 -0.78125 0.25q-0.40625 0.09375 -0.90625 0.09375q-0.515625 0 -0.96875 -0.140625q-0.4375 -0.140625 -0.765625 -0.421875q-0.328125 -0.296875 -0.53125 -0.734375q-0.1875 -0.4375 -0.1875 -1.03125q0 -0.53125 0.28125 -1.0q0.296875 -0.484375 0.921875 -0.859375q0.640625 -0.375 1.671875 -0.609375q1.03125 -0.234375 2.515625 -0.28125l0 -0.671875q0 -1.03125 -0.4375 -1.546875q-0.4375 -0.53125 -1.28125 -0.53125q-0.5625 0 -0.953125 0.140625q-0.390625 0.140625 -0.671875 0.328125q-0.28125 0.171875 -0.484375 0.3125q-0.203125 0.140625 -0.40625 0.140625q-0.15625 0 -0.28125 -0.078125q-0.109375 -0.078125 -0.171875 -0.203125l-0.28125 -0.484375q0.734375 -0.703125 1.5625 -1.046875q0.84375 -0.359375 1.875 -0.359375q0.734375 0 1.296875 0.25q0.578125 0.234375 0.96875 0.671875q0.390625 0.4375 0.59375 1.0625q0.203125 0.609375 0.203125 1.34375l0 5.609375zm-4.015625 -0.9375q0.40625 0 0.75 -0.078125q0.34375 -0.09375 0.640625 -0.234375q0.296875 -0.15625 0.5625 -0.375q0.28125 -0.21875 0.53125 -0.5l0 -1.828125q-1.0625 0.03125 -1.8125 0.171875q-0.734375 0.140625 -1.203125 0.359375q-0.46875 0.203125 -0.6875 0.5q-0.203125 0.296875 -0.203125 0.65625q0 0.34375 0.109375 0.609375q0.109375 0.25 0.296875 0.40625q0.203125 0.15625 0.453125 0.234375q0.265625 0.078125 0.5625 0.078125zm9.00415 1.078125q-1.03125 0 -1.59375 -0.578125q-0.5625 -0.578125 -0.5625 -1.671875l0 -5.375l-1.0625 0q-0.125 0 -0.234375 -0.078125q-0.09375 -0.09375 -0.09375 -0.265625l0 -0.609375l1.4375 -0.1875l0.359375 -2.703125q0.015625 -0.140625 0.109375 -0.21875q0.09375 -0.078125 0.25 -0.078125l0.78125 0l0 3.015625l2.515625 0l0 1.125l-2.515625 0l0 5.265625q0 0.5625 0.265625 0.828125q0.265625 0.265625 0.6875 0.265625q0.25 0 0.421875 -0.0625q0.1875 -0.0625 0.3125 -0.140625q0.125 -0.078125 0.21875 -0.140625q0.09375 -0.078125 0.15625 -0.078125q0.125 0 0.21875 0.15625l0.453125 0.734375q-0.390625 0.375 -0.96875 0.59375q-0.5625 0.203125 -1.15625 0.203125zm7.354065 -9.0625q0.96875 0 1.734375 0.328125q0.78125 0.3125 1.3125 0.90625q0.546875 0.59375 0.84375 1.4375q0.296875 0.828125 0.296875 1.859375q0 1.03125 -0.296875 1.875q-0.296875 0.828125 -0.84375 1.421875q-0.53125 0.578125 -1.3125 0.90625q-0.765625 0.3125 -1.734375 0.3125q-0.953125 0 -1.734375 -0.3125q-0.78125 -0.328125 -1.328125 -0.90625q-0.53125 -0.59375 -0.828125 -1.421875q-0.296875 -0.84375 -0.296875 -1.875q0 -1.03125 0.296875 -1.859375q0.296875 -0.84375 0.828125 -1.4375q0.546875 -0.59375 1.328125 -0.90625q0.78125 -0.328125 1.734375 -0.328125zm0 7.84375q1.296875 0 1.9375 -0.875q0.65625 -0.875 0.65625 -2.4375q0 -1.5625 -0.65625 -2.4375q-0.640625 -0.875 -1.9375 -0.875q-0.65625 0 -1.140625 0.234375q-0.484375 0.21875 -0.8125 0.640625q-0.328125 0.421875 -0.484375 1.046875q-0.15625 0.625 -0.15625 1.390625q0 0.78125 0.15625 1.40625q0.15625 0.609375 0.484375 1.03125q0.328125 0.421875 0.8125 0.65625q0.484375 0.21875 1.140625 0.21875zm6.0876465 1.078125l0 -8.78125l0.890625 0q0.25 0 0.34375 0.09375q0.09375 0.09375 0.125 0.328125l0.109375 1.375q0.453125 -0.921875 1.109375 -1.4375q0.65625 -0.515625 1.546875 -0.515625q0.375 0 0.65625 0.09375q0.296875 0.078125 0.5625 0.21875l-0.203125 1.15625q-0.0625 0.21875 -0.265625 0.21875q-0.125 0 -0.375 -0.078125q-0.25 -0.09375 -0.703125 -0.09375q-0.8125 0 -1.359375 0.46875q-0.53125 0.46875 -0.890625 1.359375l0 5.59375l-1.546875 0z" fill-rule="nonzero"/><path fill="#ffffff" d="m761.1076 194.99606l0 0c0 -14.185455 11.499573 -25.685043 25.685059 -25.685043l0 0c6.8120728 0 13.345154 2.7061005 18.162048 7.5229797c4.8168945 4.8168793 7.522949 11.34996 7.522949 18.162064l0 0c0 14.185455 -11.499573 25.685043 -25.684998 25.685043l0 0c-14.185486 0 -25.685059 -11.499588 -25.685059 -25.685043z" fill-rule="evenodd"/><path stroke="#666666" stroke-width="2.0" stroke-linejoin="round" stroke-linecap="butt" d="m761.1076 194.99606l0 0c0 -14.185455 11.499573 -25.685043 25.685059 -25.685043l0 0c6.8120728 0 13.345154 2.7061005 18.162048 7.5229797c4.8168945 4.8168793 7.522949 11.34996 7.522949 18.162064l0 0c0 14.185455 -11.499573 25.685043 -25.684998 25.685043l0 0c-14.185486 0 -25.685059 -11.499588 -25.685059 -25.685043z" fill-rule="evenodd"/><path fill="#000000" d="m787.8343 188.56232l0 6.25l5.96875 0l0 1.984375l-5.96875 0l0 6.3125l-2.140625 0l0 -6.3125l-5.9375 0l0 -1.984375l5.9375 0l0 -6.25l2.140625 0z" fill-rule="nonzero"/><path fill="#000000" fill-opacity="0.0" d="m29.4042 97.973755l67.18111 0l0 28.125984l-67.18111 0z" fill-rule="evenodd"/><path fill="#000000" d="m40.169823 135.29001q-0.375 0 -0.640625 -0.203125q-0.25 -0.203125 -0.28125 -0.515625q-0.03125 -0.328125 0.203125 -0.65625l5.109375 -6.8437576l0 0.765625l-4.8125 -6.484375q-0.25 -0.359375 -0.21875 -0.671875q0.03125 -0.328125 0.265625 -0.53125q0.25 -0.203125 0.609375 -0.203125q0.328125 0 0.5625 0.140625q0.25 0.140625 0.484375 0.5l4.265625 5.828125l-0.609375 0l4.21875 -5.828125q0.234375 -0.359375 0.46875 -0.5q0.25 -0.140625 0.59375 -0.140625q0.390625 0 0.625 0.203125q0.25 0.203125 0.28125 0.53125q0.03125 0.3125 -0.25 0.671875l-4.8125 6.484375l0 -0.765625l5.09375 6.8437576q0.234375 0.328125 0.203125 0.65625q-0.015625 0.3125 -0.265625 0.515625q-0.25 0.203125 -0.65625 0.203125q-0.28125 0 -0.546875 -0.15625q-0.25 -0.15625 -0.5 -0.484375l-4.546875 -6.21875l0.75 0l-4.515625 6.21875q-0.265625 0.328125 -0.53125 0.484375q-0.25 0.15625 -0.546875 0.15625z" fill-rule="nonzero"/><path fill="#000000" d="m57.74917 146.30563q-1.15625 0 -1.9375 -0.40625q-0.765625 -0.40625 -1.140625 -1.1875q-0.375 -0.78125 -0.375 -1.921875l0 -4.8125l-1.25 0q-0.359375 0 -0.5625 -0.171875q-0.1875 -0.1875 -0.1875 -0.5q0 -0.34375 0.1875 -0.515625q0.203125 -0.171875 0.5625 -0.171875l1.25 0l0 -2.140625q0 -0.4375 0.234375 -0.65625q0.234375 -0.234375 0.65625 -0.234375q0.4375 0 0.65625 0.234375q0.21875 0.21875 0.21875 0.65625l0 2.140625l2.375 0q0.375 0 0.5625 0.171875q0.203125 0.171875 0.203125 0.515625q0 0.3125 -0.203125 0.5q-0.1875 0.171875 -0.5625 0.171875l-2.375 0l0 4.65625q0 1.078125 0.453125 1.625q0.453125 0.546875 1.484375 0.546875q0.375 0 0.625 -0.0625q0.265625 -0.078125 0.453125 -0.078125q0.171875 -0.015625 0.296875 0.125q0.140625 0.125 0.140625 0.5q0 0.28125 -0.09375 0.5q-0.09375 0.21875 -0.34375 0.296875q-0.234375 0.09375 -0.625 0.15625q-0.390625 0.0625 -0.703125 0.0625z" fill-rule="nonzero"/><path fill="#efefef" d="m29.402887 255.64568l0 0c0 -12.080688 9.793329 -21.874023 21.874014 -21.874023q10.937008 0 21.874016 0q0 10.937012 0 21.874023l0 0c0 12.080673 -9.793327 21.874008 -21.874016 21.874008l0 0c-12.080685 0 -21.874014 -9.793335 -21.874014 -21.874008z" fill-rule="evenodd"/><path stroke="#666666" stroke-width="1.0" stroke-linejoin="round" stroke-linecap="butt" d="m29.402887 255.64568l0 0c0 -12.080688 9.793329 -21.874023 21.874014 -21.874023q10.937008 0 21.874016 0q0 10.937012 0 21.874023l0 0c0 12.080673 -9.793327 21.874008 -21.874016 21.874008l0 0c-12.080685 0 -21.874014 -9.793335 -21.874014 -21.874008z" fill-rule="evenodd"/><path fill="#000000" fill-opacity="0.0" d="m32.47113 220.29396l67.1811 0l0 28.125992l-67.1811 0z" fill-rule="evenodd"/><path fill="#000000" d="m43.40863 257.45395q-0.375 0 -0.625 -0.15625q-0.25 -0.15625 -0.34375 -0.421875q-0.09375 -0.28125 0 -0.609375q0.09375 -0.34373474 0.359375 -0.70310974l8.71875 -12.171875l0 0.71875l-8.25 0q-0.453125 0 -0.6875 -0.21875q-0.234375 -0.234375 -0.234375 -0.640625q0 -0.40625 0.234375 -0.609375q0.234375 -0.21875 0.6875 -0.21875l9.140625 0q0.390625 0 0.625 0.15625q0.25 0.15625 0.34375 0.421875q0.09375 0.265625 0.015625 0.609375q-0.078125 0.34375 -0.359375 0.703125l-8.71875 12.156235l0 -0.70310974l8.5625 0q0.453125 0 0.6875 0.21875q0.234375 0.20310974 0.234375 0.60935974q0 0.40625 -0.234375 0.640625q-0.234375 0.21875 -0.6875 0.21875l-9.46875 0z" fill-rule="nonzero"/><path fill="#000000" d="m59.49376 268.62582q-1.15625 0 -1.9375 -0.40625q-0.765625 -0.40625 -1.140625 -1.1875q-0.375 -0.78125 -0.375 -1.921875l0 -4.8125l-1.25 0q-0.359375 0 -0.5625 -0.171875q-0.1875 -0.1875 -0.1875 -0.5q0 -0.34375 0.1875 -0.515625q0.203125 -0.171875 0.5625 -0.171875l1.25 0l0 -2.140625q0 -0.4375 0.234375 -0.65625q0.234375 -0.23435974 0.65625 -0.23435974q0.4375 0 0.65625 0.23435974q0.21875 0.21875 0.21875 0.65625l0 2.140625l2.375 0q0.375 0 0.5625 0.171875q0.203125 0.171875 0.203125 0.515625q0 0.3125 -0.203125 0.5q-0.1875 0.171875 -0.5625 0.171875l-2.375 0l0 4.65625q0 1.078125 0.453125 1.625q0.453125 0.546875 1.484375 0.546875q0.375 0 0.625 -0.0625q0.265625 -0.078125 0.453125 -0.078125q0.171875 -0.015625 0.296875 0.125q0.140625 0.125 0.140625 0.5q0 0.28125 -0.09375 0.5q-0.09375 0.21875 -0.34375 0.296875q-0.234375 0.09375 -0.625 0.15625q-0.390625 0.0625 -0.703125 0.0625z" fill-rule="nonzero"/><path fill="#efefef" d="m628.7782 107.30971l0 0c0 -12.080681 9.793335 -21.874016 21.874023 -21.874016q10.937012 0 21.874023 0q0 10.937012 0 21.874016l0 0c0 12.080688 -9.793335 21.874023 -21.874023 21.874023l0 0c-12.080688 0 -21.874023 -9.793335 -21.874023 -21.874023z" fill-rule="evenodd"/><path stroke="#666666" stroke-width="1.0" stroke-linejoin="round" stroke-linecap="butt" d="m628.7782 107.30971l0 0c0 -12.080681 9.793335 -21.874016 21.874023 -21.874016q10.937012 0 21.874023 0q0 10.937012 0 21.874016l0 0c0 12.080688 -9.793335 21.874023 -21.874023 21.874023l0 0c-12.080688 0 -21.874023 -9.793335 -21.874023 -21.874023z" fill-rule="evenodd"/><path fill="#000000" fill-opacity="0.0" d="m622.70734 73.16535l67.18109 0l0 28.125984l-67.18109 0z" fill-rule="evenodd"/><path fill="#000000" d="m633.47296 110.481606q-0.375 0 -0.640625 -0.203125q-0.25 -0.203125 -0.28125 -0.515625q-0.03125 -0.328125 0.203125 -0.65625l5.109375 -6.84375l0 0.765625l-4.8125 -6.484375q-0.25 -0.359375 -0.21875 -0.671875q0.03125 -0.328125 0.265625 -0.53125q0.25 -0.203125 0.609375 -0.203125q0.328125 0 0.5625 0.140625q0.25 0.140625 0.484375 0.5l4.265625 5.828125l-0.609375 0l4.21875 -5.828125q0.234375 -0.359375 0.46875 -0.5q0.25 -0.140625 0.59375 -0.140625q0.390625 0 0.625 0.203125q0.25 0.203125 0.28125 0.53125q0.03125 0.3125 -0.25 0.671875l-4.8125 6.484375l0 -0.765625l5.09375 6.84375q0.234375 0.328125 0.203125 0.65625q-0.015625 0.3125 -0.265625 0.515625q-0.25 0.203125 -0.65625 0.203125q-0.28125 0 -0.546875 -0.15625q-0.25 -0.15625 -0.5 -0.484375l-4.546875 -6.21875l0.75 0l-4.515625 6.21875q-0.265625 0.328125 -0.53125 0.484375q-0.25 0.15625 -0.546875 0.15625z" fill-rule="nonzero"/><path fill="#000000" d="m653.39606 95.80973q-0.484375 0 -1.03125 -0.171875q-0.53125 -0.171875 -1.28125 -0.59375q-0.734375 -0.40625 -1.140625 -0.546875q-0.390625 -0.15625 -0.6875 -0.15625q-0.390625 0 -0.734375 0.171875q-0.328125 0.15625 -0.609375 0.625q-0.15625 0.265625 -0.390625 0.3125q-0.21875 0.03125 -0.40625 -0.09375q-0.1875 -0.125 -0.25 -0.34375q-0.0625 -0.21875 0.078125 -0.484375q0.375 -0.703125 0.953125 -1.046875q0.578125 -0.359375 1.265625 -0.359375q0.46875 0 1.0 0.171875q0.53125 0.15625 1.265625 0.5625q0.671875 0.359375 1.09375 0.546875q0.4375 0.171875 0.765625 0.171875q0.390625 0 0.734375 -0.15625q0.34375 -0.171875 0.625 -0.640625q0.15625 -0.265625 0.390625 -0.28125q0.234375 -0.03125 0.421875 0.09375q0.1875 0.109375 0.25 0.34375q0.0625 0.21875 -0.09375 0.46875q-0.390625 0.703125 -0.96875 1.0625q-0.578125 0.34375 -1.25 0.34375z" fill-rule="nonzero"/><path fill="#000000" d="m662.2461 121.49723q-1.15625 0 -1.9375 -0.40625q-0.765625 -0.40625 -1.140625 -1.1875q-0.375 -0.78125 -0.375 -1.921875l0 -4.8125l-1.25 0q-0.359375 0 -0.5625 -0.171875q-0.1875 -0.1875 -0.1875 -0.5q0 -0.34375 0.1875 -0.515625q0.203125 -0.171875 0.5625 -0.171875l1.25 0l0 -2.140625q0 -0.4375 0.234375 -0.65625q0.234375 -0.234375 0.65625 -0.234375q0.4375 0 0.65625 0.234375q0.21875 0.21875 0.21875 0.65625l0 2.140625l2.375 0q0.375 0 0.5625 0.171875q0.203125 0.171875 0.203125 0.515625q0 0.3125 -0.203125 0.5q-0.1875 0.171875 -0.5625 0.171875l-2.375 0l0 4.65625q0 1.078125 0.453125 1.625q0.453125 0.546875 1.484375 0.546875q0.375 0 0.625 -0.0625q0.265625 -0.078125 0.453125 -0.078125q0.171875 -0.015625 0.296875 0.125q0.140625 0.125 0.140625 0.5q0 0.28125 -0.09375 0.5q-0.09375 0.21875 -0.34375 0.296875q-0.234375 0.09375 -0.625 0.15625q-0.390625 0.0625 -0.703125 0.0625z" fill-rule="nonzero"/><path fill="#000000" fill-opacity="0.0" d="m280.0551 87.22835l127.71655 0" fill-rule="evenodd"/><path stroke="#000000" stroke-width="2.0" stroke-linejoin="round" stroke-linecap="butt" d="m280.0551 87.22835l115.71655 0" fill-rule="evenodd"/><path fill="#000000" stroke="#000000" stroke-width="2.0" stroke-linecap="butt" d="m395.77167 90.531815l9.076172 -3.3034668l-9.076172 -3.3034668z" fill-rule="evenodd"/><path fill="#000000" fill-opacity="0.0" d="m281.7362 318.7244l123.968506 0" fill-rule="evenodd"/><path stroke="#000000" stroke-width="2.0" stroke-linejoin="round" stroke-linecap="butt" d="m281.7362 318.7244l111.968506 0" fill-rule="evenodd"/><path fill="#000000" stroke="#000000" stroke-width="2.0" stroke-linecap="butt" d="m393.7047 322.02786l9.076202 -3.3034668l-9.076202 -3.3034363z" fill-rule="evenodd"/><path fill="#efefef" d="m628.77954 53.360893l0 0c0 -12.080685 11.04834 -21.874016 24.677185 -21.874016q12.338562 0 24.677124 0q0 10.937008 0 21.874016l0 0c0 12.080681 -11.04834 21.874016 -24.677124 21.874016l0 0c-13.628845 0 -24.677185 -9.793335 -24.677185 -21.874016z" fill-rule="evenodd"/><path stroke="#666666" stroke-width="1.0" stroke-linejoin="round" stroke-linecap="butt" d="m628.77954 53.360893l0 0c0 -12.080685 11.04834 -21.874016 24.677185 -21.874016q12.338562 0 24.677124 0q0 10.937008 0 21.874016l0 0c0 12.080681 -11.04834 21.874016 -24.677124 21.874016l0 0c-13.628845 0 -24.677185 -9.793335 -24.677185 -21.874016z" fill-rule="evenodd"/><path fill="#000000" fill-opacity="0.0" d="m622.70734 20.23097l67.18109 0l0 28.125986l-67.18109 0z" fill-rule="evenodd"/><path fill="#000000" d="m633.47296 57.547222q-0.375 0 -0.640625 -0.203125q-0.25 -0.203125 -0.28125 -0.515625q-0.03125 -0.328125 0.203125 -0.65625l5.109375 -6.84375l0 0.765625l-4.8125 -6.484375q-0.25 -0.359375 -0.21875 -0.671875q0.03125 -0.328125 0.265625 -0.53125q0.25 -0.203125 0.609375 -0.203125q0.328125 0 0.5625 0.140625q0.25 0.140625 0.484375 0.5l4.265625 5.828125l-0.609375 0l4.21875 -5.828125q0.234375 -0.359375 0.46875 -0.5q0.25 -0.140625 0.59375 -0.140625q0.390625 0 0.625 0.203125q0.25 0.203125 0.28125 0.53125q0.03125 0.3125 -0.25 0.671875l-4.8125 6.484375l0 -0.765625l5.09375 6.84375q0.234375 0.328125 0.203125 0.65625q-0.015625 0.3125 -0.265625 0.515625q-0.25 0.203125 -0.65625 0.203125q-0.28125 0 -0.546875 -0.15625q-0.25 -0.15625 -0.5 -0.484375l-4.546875 -6.21875l0.75 0l-4.515625 6.21875q-0.265625 0.328125 -0.53125 0.484375q-0.25 0.15625 -0.546875 0.15625z" fill-rule="nonzero"/><path fill="#000000" d="m646.6148 50.484722q-0.234375 0 -0.359375 -0.09375q-0.125 -0.109375 -0.15625 -0.28125q-0.03125 -0.171875 0.078125 -0.390625l3.390625 -7.6875q0.109375 -0.265625 0.28125 -0.375q0.1875 -0.125 0.390625 -0.125q0.21875 0 0.375 0.125q0.171875 0.109375 0.296875 0.375l3.390625 7.6875q0.109375 0.21875 0.078125 0.40625q-0.015625 0.171875 -0.140625 0.265625q-0.125 0.09375 -0.34375 0.09375q-0.25 0 -0.40625 -0.125q-0.140625 -0.140625 -0.25 -0.390625l-0.890625 -2.0625l0.546875 0.296875l-5.328125 0l0.53125 -0.296875l-0.875 2.0625q-0.109375 0.265625 -0.25 0.390625q-0.140625 0.125 -0.359375 0.125zm3.609375 -7.5625l-1.953125 4.59375l-0.296875 -0.265625l4.5 0l-0.28125 0.265625l-1.953125 -4.59375l-0.015625 0zm6.2417603 7.46875q-0.296875 0 -0.453125 -0.15625q-0.15625 -0.171875 -0.15625 -0.46875l0 -7.515625q0 -0.296875 0.15625 -0.453125q0.15625 -0.171875 0.453125 -0.171875l4.578125 0q0.25 0 0.375 0.125q0.125 0.109375 0.125 0.328125q0 0.234375 -0.125 0.359375q-0.125 0.125 -0.375 0.125l-4.078125 0l0 2.90625l3.828125 0q0.234375 0 0.359375 0.125q0.125 0.125 0.125 0.34375q0 0.234375 -0.125 0.359375q-0.125 0.109375 -0.359375 0.109375l-3.828125 0l0 3.046875l4.078125 0q0.25 0 0.375 0.125q0.125 0.109375 0.125 0.34375q0 0.234375 -0.125 0.359375q-0.125 0.109375 -0.375 0.109375l-4.578125 0z" fill-rule="nonzero"/><path fill="#000000" d="m667.45746 68.56284q-1.15625 0 -1.9375 -0.40625q-0.765625 -0.40625 -1.140625 -1.1875q-0.375 -0.78125 -0.375 -1.921875l0 -4.812496l-1.25 0q-0.359375 0 -0.5625 -0.171875q-0.1875 -0.1875 -0.1875 -0.5q0 -0.34375 0.1875 -0.515625q0.203125 -0.171875 0.5625 -0.171875l1.25 0l0 -2.140625q0 -0.4375 0.234375 -0.65625q0.234375 -0.234375 0.65625 -0.234375q0.4375 0 0.65625 0.234375q0.21875 0.21875 0.21875 0.65625l0 2.140625l2.375 0q0.375 0 0.5625 0.171875q0.203125 0.171875 0.203125 0.515625q0 0.3125 -0.203125 0.5q-0.1875 0.171875 -0.5625 0.171875l-2.375 0l0 4.656246q0 1.078125 0.453125 1.625q0.453125 0.546875 1.484375 0.546875q0.375 0 0.625 -0.0625q0.265625 -0.078125 0.453125 -0.078125q0.171875 -0.015625 0.296875 0.125q0.140625 0.125 0.140625 0.5q0 0.28125 -0.09375 0.5q-0.09375 0.21875 -0.34375 0.296875q-0.234375 0.09375 -0.625 0.15625q-0.390625 0.0625 -0.703125 0.0625z" fill-rule="nonzero"/><path fill="#000000" fill-opacity="0.0" d="m554.6483 87.22835l74.14172 -33.85827" fill-rule="evenodd"/><path stroke="#000000" stroke-width="2.0" stroke-linejoin="round" stroke-linecap="butt" d="m554.6483 87.22835l63.226074 -28.873428" fill-rule="evenodd"/><path fill="#000000" stroke="#000000" stroke-width="2.0" stroke-linecap="butt" d="m619.24664 61.359875l6.883789 -6.775238l-9.628296 0.76533127z" fill-rule="evenodd"/><path fill="#000000" fill-opacity="0.0" d="m554.6483 87.22835l74.14172 20.09449" fill-rule="evenodd"/><path stroke="#000000" stroke-width="2.0" stroke-linejoin="round" stroke-linecap="butt" d="m554.6483 87.22835l62.55957 16.955399" fill-rule="evenodd"/><path fill="#000000" stroke="#000000" stroke-width="2.0" stroke-linecap="butt" d="m616.34375 107.372185l9.624268 -0.8141861l-7.895996 -5.562683z" fill-rule="evenodd"/><path fill="#000000" fill-opacity="0.0" d="m51.2769 277.51968l83.590546 41.19684" fill-rule="evenodd"/><path stroke="#000000" stroke-width="2.0" stroke-linejoin="round" stroke-linecap="butt" d="m51.2769 277.51968l72.82678 35.89203" fill-rule="evenodd"/><path fill="#000000" stroke="#000000" stroke-width="2.0" stroke-linecap="butt" d="m122.643326 316.37485l9.601532 1.0491638l-6.6808167 -6.975464z" fill-rule="evenodd"/><path fill="#000000" fill-opacity="0.0" d="m50.889763 112.55118l82.29922 -25.32283" fill-rule="evenodd"/><path stroke="#000000" stroke-width="2.0" stroke-linejoin="round" stroke-linecap="butt" d="m50.889763 112.55118l70.82987 -21.793808" fill-rule="evenodd"/><path fill="#000000" stroke="#000000" stroke-width="2.0" stroke-linecap="butt" d="m122.69113 93.91476l7.7033386 -5.826561l-9.646347 -0.48820496z" fill-rule="evenodd"/><path fill="#000000" fill-opacity="0.0" d="m65.063065 150.07094l0 68.8819l712.1575 0" fill-rule="evenodd"/><path stroke="#000000" stroke-width="2.0" stroke-linejoin="round" stroke-linecap="butt" stroke-dasharray="8.0,6.0" d="m65.063065 150.07094l0 68.8819l704.5775 0" fill-rule="evenodd"/><path fill="#000000" stroke="#000000" stroke-width="2.0" stroke-linecap="butt" d="m776.2206 218.95284c0 1.8170166 -1.4730225 3.2900085 -3.290039 3.2900085c-1.8170166 0 -3.289978 -1.472992 -3.289978 -3.2900085c0 -1.8170166 1.4729614 -3.2899933 3.289978 -3.2899933c1.8170166 0 3.290039 1.4729767 3.290039 3.2899933z" fill-rule="nonzero"/><path fill="#000000" fill-opacity="0.0" d="m679.70605 48.87008l0 -0.7491417l107.08661 0l0 121.19008" fill-rule="evenodd"/><path stroke="#000000" stroke-width="2.0" stroke-linejoin="round" stroke-linecap="butt" stroke-dasharray="8.0,6.0" d="m679.70605 48.87008l0 -0.7491455l107.08661 0l0 113.610085" fill-rule="evenodd"/><path fill="#000000" stroke="#000000" stroke-width="2.0" stroke-linecap="butt" d="m786.79266 168.31102c-1.8170166 0 -3.290039 -1.4729767 -3.290039 -3.2899933c0 -1.8170166 1.4730225 -3.2900085 3.290039 -3.2900085c1.8170166 0 3.289978 1.472992 3.289978 3.2900085c0 1.8170166 -1.4729614 3.2899933 -3.289978 3.2899933z" fill-rule="nonzero"/><path fill="#000000" fill-opacity="0.0" d="m283.00787 13.125984l127.71652 0l0 20.09449l-127.71652 0z" fill-rule="evenodd"/><path fill="#000000" d="m311.00653 38.765984l-1.75 0q-0.28125 0 -0.46875 -0.140625q-0.171875 -0.140625 -0.203125 -0.375l-0.53125 -2.609375l-4.65625 0l-1.171875 2.609375q-0.09375 0.203125 -0.3125 0.359375q-0.21875 0.15625 -0.484375 0.15625l-1.765625 0l6.0625 -12.53125l2.296875 0l2.984375 12.53125zm-6.921875 -4.71875l3.65625 0l-0.84375 -4.28125q-0.078125 -0.3125 -0.15625 -0.65625q-0.0625 -0.34375 -0.125 -0.78125q-0.15625 0.4375 -0.328125 0.8125q-0.15625 0.359375 -0.296875 0.625l-1.90625 4.28125zm10.866058 -4.171875q-0.171875 1.46875 -0.296875 2.484375q-0.125 1.015625 -0.203125 1.6875q-0.078125 0.671875 -0.125 1.0625q-0.03125 0.390625 -0.0625 0.59375q-0.015625 0.1875 -0.03125 0.265625q0 0.0625 0 0.109375q0 0.578125 0.203125 0.828125q0.21875 0.234375 0.65625 0.234375q0.34375 0 0.703125 -0.1875q0.359375 -0.1875 0.6875 -0.53125q0.34375 -0.34375 0.625 -0.828125q0.28125 -0.5 0.484375 -1.109375l0.546875 -4.609375l2.140625 0l-1.0625 8.890625l-1.09375 0q-0.140625 0 -0.28125 -0.03125q-0.125 -0.046875 -0.234375 -0.125q-0.109375 -0.078125 -0.1875 -0.1875q-0.0625 -0.125 -0.0625 -0.296875l0 -0.03125l0.0625 -1.09375q-0.671875 0.953125 -1.484375 1.421875q-0.796875 0.46875 -1.65625 0.46875q-0.5 0 -0.90625 -0.171875q-0.390625 -0.171875 -0.6875 -0.515625q-0.28125 -0.34375 -0.4375 -0.828125q-0.15625 -0.5 -0.15625 -1.140625q0 -0.1875 0 -0.359375q0.015625 -0.171875 0.046875 -0.359375l0.671875 -5.640625l2.140625 0zm7.0483093 7.078125q0 -0.0625 0 -0.140625q0 -0.078125 0 -0.234375q0.015625 -0.171875 0.046875 -0.4375q0.03125 -0.265625 0.078125 -0.671875l0.5 -3.984375l-0.84375 0q-0.140625 0 -0.234375 -0.09375q-0.09375 -0.09375 -0.09375 -0.28125q0 0 0 -0.03125q0.015625 -0.03125 0.015625 -0.109375q0.015625 -0.09375 0.03125 -0.265625q0.03125 -0.1875 0.0625 -0.53125l1.34375 -0.21875l0.71875 -2.4375q0.046875 -0.171875 0.171875 -0.265625q0.125 -0.09375 0.3125 -0.09375l1.140625 0l-0.34375 2.796875l2.140625 0l-0.171875 1.53125l-2.15625 0l-0.484375 3.875q-0.046875 0.34375 -0.0625 0.5625q-0.015625 0.203125 -0.03125 0.328125q-0.015625 0.109375 -0.03125 0.15625q0 0.046875 0 0.0625q0 0.328125 0.15625 0.53125q0.171875 0.1875 0.46875 0.1875q0.171875 0 0.296875 -0.046875q0.140625 -0.0625 0.234375 -0.109375q0.09375 -0.046875 0.171875 -0.09375q0.078125 -0.046875 0.140625 -0.046875q0.09375 0 0.140625 0.046875q0.0625 0.046875 0.109375 0.140625l0.46875 1.03125q-0.484375 0.390625 -1.0625 0.59375q-0.578125 0.203125 -1.171875 0.203125q-0.9375 0 -1.5 -0.515625q-0.546875 -0.515625 -0.5625 -1.4375zm8.846008 0.296875q0.53125 0 0.96875 -0.296875q0.4375 -0.3125 0.734375 -0.828125q0.3125 -0.515625 0.46875 -1.203125q0.171875 -0.6875 0.171875 -1.4375q0 -1.09375 -0.375 -1.59375q-0.359375 -0.515625 -1.09375 -0.515625q-0.546875 0 -0.984375 0.3125q-0.421875 0.296875 -0.734375 0.8125q-0.296875 0.515625 -0.46875 1.203125q-0.15625 0.6875 -0.15625 1.453125q0 1.078125 0.359375 1.59375q0.359375 0.5 1.109375 0.5zm-0.1875 1.640625q-0.734375 0 -1.375 -0.234375q-0.625 -0.25 -1.078125 -0.71875q-0.453125 -0.484375 -0.71875 -1.171875q-0.25 -0.703125 -0.25 -1.59375q0 -1.15625 0.359375 -2.140625q0.375 -1.0 1.0 -1.734375q0.640625 -0.734375 1.484375 -1.140625q0.859375 -0.421875 1.828125 -0.421875q0.734375 0 1.359375 0.25q0.625 0.25 1.078125 0.734375q0.46875 0.46875 0.71875 1.171875q0.265625 0.6875 0.265625 1.578125q0 1.140625 -0.375 2.140625q-0.359375 0.984375 -1.0 1.71875q-0.640625 0.734375 -1.5 1.15625q-0.84375 0.40625 -1.796875 0.40625zm12.993652 -6.953125q0 0.59375 -0.234375 1.09375q-0.234375 0.5 -0.859375 0.890625q-0.609375 0.375 -1.671875 0.65625q-1.046875 0.28125 -2.671875 0.453125l0 0.109375q0 2.09375 1.765625 2.09375q0.390625 0 0.6875 -0.0625q0.296875 -0.078125 0.515625 -0.171875q0.21875 -0.109375 0.390625 -0.234375q0.1875 -0.140625 0.328125 -0.234375q0.15625 -0.109375 0.296875 -0.1875q0.15625 -0.078125 0.328125 -0.078125q0.109375 0 0.203125 0.046875q0.109375 0.046875 0.171875 0.15625l0.546875 0.65625q-0.453125 0.453125 -0.90625 0.796875q-0.4375 0.328125 -0.890625 0.546875q-0.453125 0.21875 -0.96875 0.3125q-0.515625 0.109375 -1.125 0.109375q-0.78125 0 -1.421875 -0.265625q-0.625 -0.265625 -1.078125 -0.734375q-0.4375 -0.484375 -0.6875 -1.15625q-0.25 -0.6875 -0.25 -1.53125q0 -0.703125 0.15625 -1.375q0.15625 -0.671875 0.4375 -1.28125q0.28125 -0.609375 0.6875 -1.109375q0.421875 -0.515625 0.953125 -0.890625q0.53125 -0.375 1.15625 -0.578125q0.625 -0.21875 1.34375 -0.21875q0.703125 0 1.21875 0.203125q0.53125 0.203125 0.875 0.515625q0.359375 0.3125 0.53125 0.703125q0.171875 0.390625 0.171875 0.765625zm-2.921875 -0.6875q-0.4375 0 -0.8125 0.171875q-0.359375 0.171875 -0.671875 0.5q-0.296875 0.3125 -0.515625 0.765625q-0.21875 0.453125 -0.34375 0.96875q1.078125 -0.140625 1.71875 -0.3125q0.65625 -0.171875 1.015625 -0.375q0.359375 -0.21875 0.46875 -0.453125q0.125 -0.234375 0.125 -0.5q0 -0.125 -0.0625 -0.265625q-0.046875 -0.140625 -0.171875 -0.25q-0.109375 -0.109375 -0.296875 -0.171875q-0.1875 -0.078125 -0.453125 -0.078125zm3.618164 7.515625l1.0625 -8.890625l1.09375 0q0.34375 0 0.515625 0.171875q0.1875 0.15625 0.1875 0.515625l-0.0625 1.15625q0.6875 -1.0 1.5 -1.484375q0.828125 -0.5 1.703125 -0.5q0.5 0 0.890625 0.1875q0.40625 0.171875 0.6875 0.515625q0.296875 0.34375 0.453125 0.84375q0.15625 0.5 0.15625 1.140625q0 0.171875 -0.015625 0.34375q-0.015625 0.15625 -0.03125 0.34375l-0.671875 5.65625l-2.140625 0q0.171875 -1.46875 0.296875 -2.484375q0.125 -1.015625 0.203125 -1.6875q0.078125 -0.6875 0.125 -1.0625q0.046875 -0.390625 0.0625 -0.578125q0.015625 -0.203125 0.015625 -0.265625q0.015625 -0.078125 0.015625 -0.109375q0 -0.578125 -0.21875 -0.828125q-0.203125 -0.265625 -0.640625 -0.265625q-0.359375 0 -0.75 0.21875q-0.375 0.203125 -0.71875 0.59375q-0.34375 0.375 -0.640625 0.90625q-0.28125 0.53125 -0.453125 1.203125l-0.484375 4.359375l-2.140625 0zm16.143768 -1.578125q-0.453125 0.484375 -0.859375 0.8125q-0.390625 0.328125 -0.8125 0.53125q-0.40625 0.203125 -0.875 0.28125q-0.453125 0.078125 -1.0 0.078125q-0.765625 0 -1.390625 -0.265625q-0.609375 -0.265625 -1.03125 -0.75q-0.421875 -0.484375 -0.640625 -1.15625q-0.21875 -0.6875 -0.21875 -1.53125q0 -1.078125 0.34375 -2.0625q0.34375 -0.984375 0.96875 -1.734375q0.625 -0.75 1.484375 -1.1875q0.859375 -0.453125 1.875 -0.453125q0.875 0 1.484375 0.3125q0.625 0.3125 1.125 0.9375l-0.6875 0.8125q-0.078125 0.078125 -0.1875 0.140625q-0.09375 0.0625 -0.21875 0.0625q-0.140625 0 -0.265625 -0.09375q-0.125 -0.09375 -0.28125 -0.1875q-0.15625 -0.109375 -0.40625 -0.203125q-0.234375 -0.09375 -0.609375 -0.09375q-0.5 0 -0.953125 0.28125q-0.4375 0.265625 -0.78125 0.765625q-0.34375 0.484375 -0.546875 1.1875q-0.203125 0.6875 -0.203125 1.53125q0 0.96875 0.421875 1.5q0.4375 0.53125 1.171875 0.53125q0.5 0 0.8125 -0.140625q0.328125 -0.140625 0.546875 -0.3125q0.234375 -0.171875 0.40625 -0.3125q0.1875 -0.140625 0.390625 -0.140625q0.109375 0 0.203125 0.0625q0.109375 0.046875 0.1875 0.140625l0.546875 0.65625l0 0zm4.2651978 0.0625q0.53125 0 0.96875 -0.296875q0.4375 -0.3125 0.734375 -0.828125q0.3125 -0.515625 0.46875 -1.203125q0.171875 -0.6875 0.171875 -1.4375q0 -1.09375 -0.375 -1.59375q-0.359375 -0.515625 -1.09375 -0.515625q-0.546875 0 -0.984375 0.3125q-0.421875 0.296875 -0.734375 0.8125q-0.296875 0.515625 -0.46875 1.203125q-0.15625 0.6875 -0.15625 1.453125q0 1.078125 0.359375 1.59375q0.359375 0.5 1.109375 0.5zm-0.1875 1.640625q-0.734375 0 -1.375 -0.234375q-0.625 -0.25 -1.078125 -0.71875q-0.453125 -0.484375 -0.71875 -1.171875q-0.25 -0.703125 -0.25 -1.59375q0 -1.15625 0.359375 -2.140625q0.375 -1.0 1.0 -1.734375q0.640625 -0.734375 1.484375 -1.140625q0.859375 -0.421875 1.828125 -0.421875q0.734375 0 1.359375 0.25q0.625 0.25 1.078125 0.734375q0.46875 0.46875 0.71875 1.171875q0.265625 0.6875 0.265625 1.578125q0 1.140625 -0.375 2.140625q-0.359375 0.984375 -1.0 1.71875q-0.640625 0.734375 -1.5 1.15625q-0.84375 0.40625 -1.796875 0.40625zm11.634308 -0.125q-0.390625 0 -0.546875 -0.171875q-0.15625 -0.1875 -0.15625 -0.46875l0.0625 -1.296875q-0.640625 0.953125 -1.4375 1.515625q-0.796875 0.546875 -1.6875 0.546875q-0.5625 0 -1.015625 -0.203125q-0.453125 -0.203125 -0.78125 -0.609375q-0.3125 -0.40625 -0.484375 -1.03125q-0.171875 -0.625 -0.171875 -1.46875q0 -0.75 0.15625 -1.46875q0.15625 -0.734375 0.4375 -1.375q0.28125 -0.65625 0.671875 -1.203125q0.40625 -0.546875 0.890625 -0.9375q0.484375 -0.40625 1.03125 -0.625q0.546875 -0.234375 1.140625 -0.234375q0.59375 0 1.078125 0.21875q0.484375 0.21875 0.859375 0.59375l0.578125 -4.65625l2.09375 0l-1.578125 12.875l-1.140625 0zm-2.9375 -1.546875q0.34375 0 0.703125 -0.234375q0.375 -0.25 0.703125 -0.671875q0.34375 -0.421875 0.625 -0.984375q0.296875 -0.5625 0.5 -1.21875l0.28125 -2.15625q-0.296875 -0.328125 -0.6875 -0.453125q-0.375 -0.140625 -0.734375 -0.140625q-0.578125 0 -1.046875 0.359375q-0.46875 0.359375 -0.796875 0.9375q-0.328125 0.5625 -0.515625 1.28125q-0.1875 0.71875 -0.1875 1.4375q0 0.9375 0.296875 1.390625q0.3125 0.453125 0.859375 0.453125zm13.63681 -5.28125q0 0.59375 -0.234375 1.09375q-0.234375 0.5 -0.859375 0.890625q-0.609375 0.375 -1.671875 0.65625q-1.046875 0.28125 -2.671875 0.453125l0 0.109375q0 2.09375 1.765625 2.09375q0.390625 0 0.6875 -0.0625q0.296875 -0.078125 0.515625 -0.171875q0.21875 -0.109375 0.390625 -0.234375q0.1875 -0.140625 0.328125 -0.234375q0.15625 -0.109375 0.296875 -0.1875q0.15625 -0.078125 0.328125 -0.078125q0.109375 0 0.203125 0.046875q0.109375 0.046875 0.171875 0.15625l0.546875 0.65625q-0.453125 0.453125 -0.90625 0.796875q-0.4375 0.328125 -0.890625 0.546875q-0.453125 0.21875 -0.96875 0.3125q-0.515625 0.109375 -1.125 0.109375q-0.78125 0 -1.421875 -0.265625q-0.625 -0.265625 -1.078125 -0.734375q-0.4375 -0.484375 -0.6875 -1.15625q-0.25 -0.6875 -0.25 -1.53125q0 -0.703125 0.15625 -1.375q0.15625 -0.671875 0.4375 -1.28125q0.28125 -0.609375 0.6875 -1.109375q0.421875 -0.515625 0.953125 -0.890625q0.53125 -0.375 1.15625 -0.578125q0.625 -0.21875 1.34375 -0.21875q0.703125 0 1.21875 0.203125q0.53125 0.203125 0.875 0.515625q0.359375 0.3125 0.53125 0.703125q0.171875 0.390625 0.171875 0.765625zm-2.921875 -0.6875q-0.4375 0 -0.8125 0.171875q-0.359375 0.171875 -0.671875 0.5q-0.296875 0.3125 -0.515625 0.765625q-0.21875 0.453125 -0.34375 0.96875q1.078125 -0.140625 1.71875 -0.3125q0.65625 -0.171875 1.015625 -0.375q0.359375 -0.21875 0.46875 -0.453125q0.125 -0.234375 0.125 -0.5q0 -0.125 -0.0625 -0.265625q-0.046875 -0.140625 -0.171875 -0.25q-0.109375 -0.109375 -0.296875 -0.171875q-0.1875 -0.078125 -0.453125 -0.078125zm3.6181335 7.515625l1.078125 -8.890625l1.078125 0q0.3125 0 0.515625 0.140625q0.203125 0.125 0.203125 0.4375q0 0 0 0.03125q0 0.03125 -0.015625 0.171875q0 0.140625 -0.015625 0.46875q0 0.3125 -0.03125 0.875q0.546875 -1.046875 1.1875 -1.609375q0.65625 -0.578125 1.359375 -0.578125q0.359375 0 0.71875 0.15625l-0.390625 2.046875q-0.4375 -0.1875 -0.828125 -0.1875q-0.765625 0 -1.34375 0.75q-0.578125 0.734375 -0.953125 2.296875l-0.46875 3.890625l-2.09375 0z" fill-rule="nonzero"/><path fill="#000000" fill-opacity="0.0" d="m398.09448 352.0l207.81104 0l0 20.094482l-207.81104 0z" fill-rule="evenodd"/><path fill="#000000" d="m432.79904 375.98376q0.703125 0 1.234375 -0.125q0.546875 -0.140625 1.03125 -0.390625l0.296875 -2.390625l-1.390625 0q-0.1875 0 -0.296875 -0.09375q-0.109375 -0.09375 -0.109375 -0.25l0.140625 -1.34375l3.90625 0l-0.625 5.03125q-0.953125 0.703125 -2.0625 1.03125q-1.09375 0.328125 -2.5 0.328125q-1.15625 0 -2.09375 -0.40625q-0.9375 -0.421875 -1.609375 -1.15625q-0.671875 -0.75 -1.046875 -1.765625q-0.359375 -1.015625 -0.359375 -2.234375q0 -1.046875 0.234375 -2.0q0.234375 -0.953125 0.65625 -1.75q0.4375 -0.8125 1.03125 -1.453125q0.609375 -0.640625 1.359375 -1.09375q0.75 -0.46875 1.609375 -0.703125q0.875 -0.25 1.828125 -0.25q0.765625 0 1.375 0.140625q0.625 0.140625 1.125 0.375q0.515625 0.21875 0.90625 0.53125q0.40625 0.3125 0.71875 0.671875l-0.734375 0.921875q-0.234375 0.3125 -0.546875 0.3125q-0.203125 0 -0.390625 -0.125q-0.28125 -0.1875 -0.546875 -0.34375q-0.265625 -0.171875 -0.578125 -0.296875q-0.296875 -0.125 -0.65625 -0.1875q-0.359375 -0.078125 -0.84375 -0.078125q-0.9375 0 -1.71875 0.390625q-0.765625 0.375 -1.34375 1.0625q-0.5625 0.6875 -0.875 1.65625q-0.296875 0.953125 -0.296875 2.140625q0 0.90625 0.21875 1.625q0.234375 0.703125 0.640625 1.203125q0.421875 0.484375 1.0 0.75q0.59375 0.265625 1.3125 0.265625zm16.091034 1.65625l-1.75 0q-0.28125 0 -0.46875 -0.140625q-0.171875 -0.140625 -0.203125 -0.375l-0.53125 -2.609375l-4.65625 0l-1.171875 2.609375q-0.09375 0.203125 -0.3125 0.359375q-0.21875 0.15625 -0.484375 0.15625l-1.765625 0l6.0625 -12.53125l2.296875 0l2.984375 12.53125zm-6.921875 -4.71875l3.65625 0l-0.84375 -4.28125q-0.078125 -0.3125 -0.15625 -0.65625q-0.0625 -0.34375 -0.125 -0.78125q-0.15625 0.4375 -0.328125 0.8125q-0.15625 0.359375 -0.296875 0.625l-1.90625 4.28125zm10.647339 -7.8125q0.140625 0 0.234375 0.015625q0.109375 0.015625 0.1875 0.0625q0.078125 0.03125 0.140625 0.109375q0.0625 0.0625 0.125 0.171875l4.875 8.5625q0.03125 -0.25 0.046875 -0.484375q0.015625 -0.25 0.046875 -0.453125l0.984375 -7.984375l1.984375 0l-1.5625 12.53125l-1.140625 0q-0.265625 0 -0.453125 -0.078125q-0.171875 -0.09375 -0.296875 -0.3125l-4.859375 -8.546875q-0.015625 0.203125 -0.03125 0.40625q-0.015625 0.1875 -0.03125 0.359375l-0.984375 8.171875l-1.984375 0l1.546875 -12.53125l1.171875 0l0 0zm12.748566 3.640625l1.609375 0q0.234375 0 0.375 0.109375q0.15625 0.109375 0.171875 0.296875l0.515625 4.734375q0.046875 0.390625 0.046875 0.765625q0 0.359375 0.015625 0.71875q0.140625 -0.359375 0.28125 -0.71875q0.140625 -0.375 0.296875 -0.765625l1.9375 -4.765625q0.0625 -0.171875 0.21875 -0.28125q0.15625 -0.109375 0.34375 -0.109375l0.921875 0q0.234375 0 0.359375 0.109375q0.125 0.109375 0.15625 0.28125l0.75 4.765625q0.046875 0.390625 0.09375 0.765625q0.046875 0.359375 0.078125 0.71875q0.09375 -0.359375 0.203125 -0.71875q0.109375 -0.375 0.265625 -0.765625l1.71875 -4.734375q0.0625 -0.1875 0.21875 -0.296875q0.15625 -0.109375 0.34375 -0.109375l1.5625 0l-3.65625 8.890625l-1.65625 0q-0.265625 0 -0.328125 -0.375l-0.859375 -5.140625q-0.046875 -0.34375 -0.078125 -0.671875q-0.046875 0.171875 -0.109375 0.34375q-0.0625 0.171875 -0.140625 0.34375l-2.109375 5.125q-0.15625 0.375 -0.453125 0.375l-1.59375 0l-1.5 -8.890625zm15.866547 0l-1.078125 8.890625l-2.109375 0l1.0625 -8.890625l2.125 0zm0.53125 -2.59375q0 0.28125 -0.125 0.53125q-0.109375 0.234375 -0.296875 0.421875q-0.1875 0.171875 -0.4375 0.28125q-0.234375 0.109375 -0.5 0.109375q-0.25 0 -0.484375 -0.109375q-0.234375 -0.109375 -0.421875 -0.28125q-0.171875 -0.1875 -0.28125 -0.421875q-0.109375 -0.25 -0.109375 -0.53125q0 -0.265625 0.109375 -0.515625q0.109375 -0.265625 0.28125 -0.4375q0.1875 -0.1875 0.421875 -0.296875q0.25 -0.109375 0.5 -0.109375q0.265625 0 0.5 0.109375q0.25 0.109375 0.421875 0.296875q0.1875 0.171875 0.296875 0.421875q0.125 0.25 0.125 0.53125zm1.3838806 9.671875q0 -0.0625 0 -0.140625q0 -0.078125 0 -0.234375q0.015625 -0.171875 0.046875 -0.4375q0.03125 -0.265625 0.078125 -0.671875l0.5 -3.984375l-0.84375 0q-0.140625 0 -0.234375 -0.09375q-0.09375 -0.09375 -0.09375 -0.28125q0 0 0 -0.03125q0.015625 -0.03125 0.015625 -0.109375q0.015625 -0.09375 0.03125 -0.265625q0.03125 -0.1875 0.0625 -0.53125l1.34375 -0.21875l0.71875 -2.4375q0.046875 -0.171875 0.171875 -0.265625q0.125 -0.09375 0.3125 -0.09375l1.140625 0l-0.34375 2.796875l2.140625 0l-0.171875 1.53125l-2.15625 0l-0.484375 3.875q-0.046875 0.34375 -0.0625 0.5625q-0.015625 0.203125 -0.03125 0.328125q-0.015625 0.109375 -0.03125 0.15625q0 0.046875 0 0.0625q0 0.328125 0.15625 0.53125q0.171875 0.1875 0.46875 0.1875q0.171875 0 0.296875 -0.046875q0.140625 -0.0625 0.234375 -0.109375q0.09375 -0.046875 0.171875 -0.09375q0.078125 -0.046875 0.140625 -0.046875q0.09375 0 0.140625 0.046875q0.0625 0.046875 0.109375 0.140625l0.46875 1.03125q-0.484375 0.390625 -1.0625 0.59375q-0.578125 0.203125 -1.171875 0.203125q-0.9375 0 -1.5 -0.515625q-0.546875 -0.515625 -0.5625 -1.4375zm5.3772583 1.8125l1.578125 -12.875l2.125 0l-0.671875 5.5q0.65625 -0.84375 1.40625 -1.25q0.765625 -0.40625 1.546875 -0.40625q0.515625 0 0.921875 0.1875q0.40625 0.171875 0.6875 0.515625q0.28125 0.34375 0.4375 0.84375q0.15625 0.5 0.15625 1.140625q0 0.171875 -0.015625 0.34375q0 0.15625 -0.015625 0.34375l-0.671875 5.65625l-2.140625 0l0.671875 -5.65625q0.015625 -0.15625 0.015625 -0.296875q0.015625 -0.140625 0.015625 -0.265625q0 -0.5625 -0.21875 -0.8125q-0.203125 -0.25 -0.65625 -0.25q-0.328125 0 -0.6875 0.1875q-0.34375 0.1875 -0.671875 0.53125q-0.328125 0.328125 -0.625 0.8125q-0.28125 0.484375 -0.484375 1.09375l-0.5625 4.65625l-2.140625 0zm20.32306 -10.28125q-0.109375 0.171875 -0.234375 0.265625q-0.125 0.078125 -0.296875 0.078125q-0.171875 0 -0.359375 -0.140625q-0.171875 -0.140625 -0.421875 -0.296875q-0.25 -0.171875 -0.59375 -0.3125q-0.34375 -0.140625 -0.828125 -0.140625q-0.484375 0 -0.84375 0.140625q-0.359375 0.140625 -0.609375 0.390625q-0.25 0.234375 -0.375 0.5625q-0.125 0.328125 -0.125 0.703125q0 0.40625 0.203125 0.671875q0.203125 0.265625 0.53125 0.46875q0.328125 0.1875 0.75 0.34375q0.421875 0.15625 0.859375 0.328125q0.4375 0.171875 0.859375 0.40625q0.4375 0.21875 0.765625 0.546875q0.328125 0.328125 0.53125 0.796875q0.203125 0.453125 0.203125 1.125q0 0.90625 -0.3125 1.734375q-0.3125 0.8125 -0.90625 1.421875q-0.59375 0.609375 -1.453125 0.96875q-0.84375 0.359375 -1.890625 0.359375q-0.546875 0 -1.078125 -0.125q-0.53125 -0.109375 -1.0 -0.328125q-0.46875 -0.21875 -0.875 -0.515625q-0.390625 -0.3125 -0.6875 -0.671875l0.796875 -1.078125q0.109375 -0.125 0.25 -0.203125q0.140625 -0.078125 0.296875 -0.078125q0.140625 0 0.265625 0.09375q0.140625 0.078125 0.296875 0.203125q0.15625 0.125 0.34375 0.28125q0.1875 0.15625 0.421875 0.28125q0.25 0.125 0.546875 0.21875q0.3125 0.078125 0.71875 0.078125q0.96875 0 1.515625 -0.546875q0.5625 -0.5625 0.5625 -1.546875q0 -0.4375 -0.203125 -0.703125q-0.1875 -0.28125 -0.515625 -0.46875q-0.328125 -0.1875 -0.75 -0.328125q-0.421875 -0.15625 -0.859375 -0.3125q-0.4375 -0.15625 -0.859375 -0.359375q-0.40625 -0.21875 -0.734375 -0.546875q-0.328125 -0.34375 -0.53125 -0.828125q-0.1875 -0.484375 -0.1875 -1.203125q0 -0.796875 0.296875 -1.546875q0.296875 -0.75 0.84375 -1.3125q0.5625 -0.5625 1.34375 -0.90625q0.796875 -0.34375 1.796875 -0.34375q0.515625 0 0.984375 0.109375q0.46875 0.09375 0.875 0.296875q0.40625 0.1875 0.75 0.453125q0.34375 0.25 0.59375 0.578125l-0.671875 0.9375zm4.021942 1.390625q-0.171875 1.46875 -0.296875 2.484375q-0.125 1.015625 -0.203125 1.6875q-0.078125 0.671875 -0.125 1.0625q-0.03125 0.390625 -0.0625 0.59375q-0.015625 0.1875 -0.03125 0.265625q0 0.0625 0 0.109375q0 0.578125 0.203125 0.828125q0.21875 0.234375 0.65625 0.234375q0.34375 0 0.703125 -0.1875q0.359375 -0.1875 0.6875 -0.53125q0.34375 -0.34375 0.625 -0.828125q0.28125 -0.5 0.484375 -1.109375l0.546875 -4.609375l2.140625 0l-1.0625 8.890625l-1.09375 0q-0.140625 0 -0.28125 -0.03125q-0.125 -0.046875 -0.234375 -0.125q-0.109375 -0.078125 -0.1875 -0.1875q-0.0625 -0.125 -0.0625 -0.296875l0 -0.03125l0.0625 -1.09375q-0.671875 0.953125 -1.484375 1.421875q-0.796875 0.46875 -1.65625 0.46875q-0.49996948 0 -0.9062195 -0.171875q-0.390625 -0.171875 -0.6875 -0.515625q-0.28125 -0.34375 -0.4375 -0.828125q-0.15625 -0.5 -0.15625 -1.140625q0 -0.1875 0 -0.359375q0.015625 -0.171875 0.046875 -0.359375l0.671875 -5.640625l2.1405945 0zm5.86084 11.796875l1.4375 -11.796875l1.078125 0q0.296875 0 0.5 0.125q0.21875 0.125 0.21875 0.40625q0 0 0 0.03125q0 0.015625 -0.015625 0.15625q0 0.125 -0.015625 0.421875q0 0.296875 -0.03125 0.8125q0.640625 -0.953125 1.453125 -1.515625q0.8125 -0.578125 1.703125 -0.578125q0.5625 0 1.015625 0.203125q0.453125 0.203125 0.765625 0.609375q0.328125 0.40625 0.5 1.03125q0.171875 0.625 0.171875 1.46875q0 0.75 -0.15625 1.484375q-0.15625 0.71875 -0.4375 1.375q-0.28125 0.65625 -0.6875 1.203125q-0.390625 0.53125 -0.875 0.9375q-0.484375 0.390625 -1.03125 0.625q-0.546875 0.21875 -1.140625 0.21875q-0.59375 0 -1.09375 -0.203125q-0.484375 -0.21875 -0.84375 -0.59375l-0.4375 3.578125l-2.078125 0zm5.5 -10.25q-0.359375 0 -0.71875 0.234375q-0.359375 0.234375 -0.703125 0.65625q-0.328125 0.421875 -0.625 1.0q-0.296875 0.5625 -0.5 1.21875l-0.25 2.15625q0.28125 0.3125 0.65625 0.453125q0.390625 0.125 0.75 0.125q0.578125 0 1.046875 -0.34375q0.46875 -0.359375 0.796875 -0.9375q0.34375 -0.578125 0.515625 -1.28125q0.1875 -0.71875 0.1875 -1.4375q0 -0.9375 -0.3125 -1.390625q-0.296875 -0.453125 -0.84375 -0.453125zm11.543335 0.515625q0 0.59375 -0.234375 1.09375q-0.234375 0.5 -0.859375 0.890625q-0.609375 0.375 -1.671875 0.65625q-1.046875 0.28125 -2.671875 0.453125l0 0.109375q0 2.09375 1.765625 2.09375q0.390625 0 0.6875 -0.0625q0.296875 -0.078125 0.515625 -0.171875q0.21875 -0.109375 0.390625 -0.234375q0.1875 -0.140625 0.328125 -0.234375q0.15625 -0.109375 0.296875 -0.1875q0.15625 -0.078125 0.328125 -0.078125q0.109375 0 0.203125 0.046875q0.109375 0.046875 0.171875 0.15625l0.546875 0.65625q-0.453125 0.453125 -0.90625 0.796875q-0.4375 0.328125 -0.890625 0.546875q-0.453125 0.21875 -0.96875 0.3125q-0.515625 0.109375 -1.125 0.109375q-0.78125 0 -1.421875 -0.265625q-0.625 -0.265625 -1.078125 -0.734375q-0.4375 -0.484375 -0.6875 -1.15625q-0.25 -0.6875 -0.25 -1.53125q0 -0.703125 0.15625 -1.375q0.15625 -0.671875 0.4375 -1.28125q0.28125 -0.609375 0.6875 -1.109375q0.421875 -0.515625 0.953125 -0.890625q0.53125 -0.375 1.15625 -0.578125q0.625 -0.21875 1.34375 -0.21875q0.703125 0 1.21875 0.203125q0.53125 0.203125 0.875 0.515625q0.359375 0.3125 0.53125 0.703125q0.171875 0.390625 0.171875 0.765625zm-2.921875 -0.6875q-0.4375 0 -0.8125 0.171875q-0.359375 0.171875 -0.671875 0.5q-0.296875 0.3125 -0.515625 0.765625q-0.21875 0.453125 -0.34375 0.96875q1.078125 -0.140625 1.71875 -0.3125q0.65625 -0.171875 1.015625 -0.375q0.359375 -0.21875 0.46875 -0.453125q0.125 -0.234375 0.125 -0.5q0 -0.125 -0.0625 -0.265625q-0.046875 -0.140625 -0.171875 -0.25q-0.109375 -0.109375 -0.296875 -0.171875q-0.1875 -0.078125 -0.453125 -0.078125zm3.618164 7.515625l1.078125 -8.890625l1.078125 0q0.3125 0 0.515625 0.140625q0.203125 0.125 0.203125 0.4375q0 0 0 0.03125q0 0.03125 -0.015625 0.171875q0 0.140625 -0.015625 0.46875q0 0.3125 -0.03125 0.875q0.546875 -1.046875 1.1875 -1.609375q0.65625 -0.578125 1.359375 -0.578125q0.359375 0 0.71875 0.15625l-0.390625 2.046875q-0.4375 -0.1875 -0.828125 -0.1875q-0.765625 0 -1.34375 0.75q-0.578125 0.734375 -0.953125 2.296875l-0.46875 3.890625l-2.09375 0zm6.439453 -8.890625l1.75 0q0.234375 0 0.359375 0.109375q0.140625 0.109375 0.171875 0.296875l0.9375 4.734375q0.09375 0.4375 0.125 0.859375q0.03125 0.40625 0.0625 0.828125q0.109375 -0.421875 0.25 -0.828125q0.15625 -0.40625 0.34375 -0.859375l2.125 -4.734375q0.078125 -0.1875 0.234375 -0.296875q0.171875 -0.109375 0.359375 -0.109375l1.6875 0l-4.375 8.890625l-1.8125 0l-2.21875 -8.890625zm11.846497 0l-1.078125 8.890625l-2.109375 0l1.0625 -8.890625l2.125 0zm0.53125 -2.59375q0 0.28125 -0.125 0.53125q-0.109375 0.234375 -0.296875 0.421875q-0.1875 0.171875 -0.4375 0.28125q-0.234375 0.109375 -0.5 0.109375q-0.25 0 -0.484375 -0.109375q-0.234375 -0.109375 -0.421875 -0.28125q-0.171875 -0.1875 -0.28125 -0.421875q-0.109375 -0.25 -0.109375 -0.53125q0 -0.265625 0.109375 -0.515625q0.109375 -0.265625 0.28125 -0.4375q0.1875 -0.1875 0.421875 -0.296875q0.25 -0.109375 0.5 -0.109375q0.265625 0 0.5 0.109375q0.25 0.109375 0.421875 0.296875q0.1875 0.171875 0.296875 0.421875q0.125 0.25 0.125 0.53125zm6.446411 4.265625q-0.09375 0.140625 -0.1875 0.203125q-0.078125 0.046875 -0.21875 0.046875q-0.140625 0 -0.296875 -0.078125q-0.15625 -0.09375 -0.359375 -0.203125q-0.203125 -0.109375 -0.46875 -0.1875q-0.265625 -0.09375 -0.640625 -0.09375q-0.6875 0 -1.046875 0.3125q-0.359375 0.3125 -0.359375 0.765625q0 0.265625 0.140625 0.453125q0.15625 0.1875 0.390625 0.328125q0.25 0.140625 0.5625 0.265625q0.3125 0.109375 0.640625 0.25q0.328125 0.125 0.640625 0.296875q0.3125 0.15625 0.546875 0.40625q0.25 0.25 0.40625 0.59375q0.15625 0.328125 0.15625 0.8125q0 0.640625 -0.265625 1.21875q-0.25 0.578125 -0.734375 1.015625q-0.46875 0.4375 -1.140625 0.703125q-0.671875 0.25 -1.515625 0.25q-0.421875 0 -0.8125 -0.09375q-0.390625 -0.078125 -0.75 -0.21875q-0.34375 -0.15625 -0.625 -0.34375q-0.28125 -0.203125 -0.46875 -0.4375l0.515625 -0.8125q0.09375 -0.15625 0.21875 -0.234375q0.140625 -0.078125 0.328125 -0.078125q0.171875 0 0.3125 0.125q0.15625 0.109375 0.359375 0.25q0.203125 0.125 0.484375 0.234375q0.28125 0.109375 0.71875 0.109375q0.359375 0 0.625 -0.09375q0.28125 -0.09375 0.46875 -0.25q0.1875 -0.171875 0.28125 -0.375q0.09375 -0.21875 0.09375 -0.46875q0 -0.296875 -0.15625 -0.484375q-0.140625 -0.203125 -0.390625 -0.34375q-0.25 -0.140625 -0.5625 -0.25q-0.3125 -0.109375 -0.640625 -0.234375q-0.3125 -0.125 -0.625 -0.265625q-0.3125 -0.15625 -0.5625 -0.390625q-0.234375 -0.25 -0.390625 -0.59375q-0.140625 -0.34375 -0.140625 -0.828125q0 -0.59375 0.21875 -1.15625q0.234375 -0.5625 0.671875 -0.984375q0.4375 -0.4375 1.0625 -0.6875q0.640625 -0.265625 1.46875 -0.265625q0.84375 0 1.5 0.296875q0.65625 0.28125 1.109375 0.734375l-0.5625 0.78125zm4.4419556 5.703125q0.53125 0 0.96875 -0.296875q0.4375 -0.3125 0.734375 -0.828125q0.3125 -0.515625 0.46875 -1.203125q0.171875 -0.6875 0.171875 -1.4375q0 -1.09375 -0.375 -1.59375q-0.359375 -0.515625 -1.09375 -0.515625q-0.546875 0 -0.984375 0.3125q-0.421875 0.296875 -0.734375 0.8125q-0.296875 0.515625 -0.46875 1.203125q-0.15625 0.6875 -0.15625 1.453125q0 1.078125 0.359375 1.59375q0.359375 0.5 1.109375 0.5zm-0.1875 1.640625q-0.734375 0 -1.375 -0.234375q-0.625 -0.25 -1.078125 -0.71875q-0.453125 -0.484375 -0.71875 -1.171875q-0.25 -0.703125 -0.25 -1.59375q0 -1.15625 0.359375 -2.140625q0.375 -1.0 1.0 -1.734375q0.640625 -0.734375 1.484375 -1.140625q0.859375 -0.421875 1.828125 -0.421875q0.734375 0 1.359375 0.25q0.625 0.25 1.078125 0.734375q0.46875 0.46875 0.71875 1.171875q0.265625 0.6875 0.265625 1.578125q0 1.140625 -0.375 2.140625q-0.359375 0.984375 -1.0 1.71875q-0.640625 0.734375 -1.5 1.15625q-0.84375 0.40625 -1.796875 0.40625zm5.4937134 -0.125l1.078125 -8.890625l1.078125 0q0.3125 0 0.515625 0.140625q0.203125 0.125 0.203125 0.4375q0 0 0 0.03125q0 0.03125 -0.015625 0.171875q0 0.140625 -0.015625 0.46875q0 0.3125 -0.03125 0.875q0.546875 -1.046875 1.1875 -1.609375q0.65625 -0.578125 1.359375 -0.578125q0.359375 0 0.71875 0.15625l-0.390625 2.046875q-0.4375 -0.1875 -0.828125 -0.1875q-0.765625 0 -1.34375 0.75q-0.578125 0.734375 -0.953125 2.296875l-0.46875 3.890625l-2.09375 0z" fill-rule="nonzero"/><path fill="#efefef" d="m628.7782 161.25984l0 0c0 -12.080688 9.793335 -21.874008 21.874023 -21.874008q10.937012 0 21.874023 0q0 10.936996 0 21.874008l0 0c0 12.080688 -9.793335 21.874023 -21.874023 21.874023l0 0c-12.080688 0 -21.874023 -9.793335 -21.874023 -21.874023z" fill-rule="evenodd"/><path stroke="#666666" stroke-width="1.0" stroke-linejoin="round" stroke-linecap="butt" d="m628.7782 161.25984l0 0c0 -12.080688 9.793335 -21.874008 21.874023 -21.874008q10.937012 0 21.874023 0q0 10.936996 0 21.874008l0 0c0 12.080688 -9.793335 21.874023 -21.874023 21.874023l0 0c-12.080688 0 -21.874023 -9.793335 -21.874023 -21.874023z" fill-rule="evenodd"/><path fill="#000000" fill-opacity="0.0" d="m624.44226 126.09974l67.18109 0l0 28.125984l-67.18109 0z" fill-rule="evenodd"/><path fill="#000000" d="m635.2079 163.41599q-0.375 0 -0.640625 -0.203125q-0.25 -0.203125 -0.28125 -0.515625q-0.03125 -0.328125 0.203125 -0.65625l5.109375 -6.84375l0 0.765625l-4.8125 -6.484375q-0.25 -0.359375 -0.21875 -0.671875q0.03125 -0.328125 0.265625 -0.53125q0.25 -0.203125 0.609375 -0.203125q0.328125 0 0.5625 0.140625q0.25 0.140625 0.484375 0.5l4.265625 5.828125l-0.609375 0l4.21875 -5.828125q0.234375 -0.359375 0.46875 -0.5q0.25 -0.140625 0.59375 -0.140625q0.390625 0 0.625 0.203125q0.25 0.203125 0.28125 0.53125q0.03125 0.3125 -0.25 0.671875l-4.8125 6.484375l0 -0.765625l5.09375 6.84375q0.234375 0.328125 0.203125 0.65625q-0.015625 0.3125 -0.265625 0.515625q-0.25 0.203125 -0.65625 0.203125q-0.28125 0 -0.546875 -0.15625q-0.25 -0.15625 -0.5 -0.484375l-4.546875 -6.21875l0.75 0l-4.515625 6.21875q-0.265625 0.328125 -0.53125 0.484375q-0.25 0.15625 -0.546875 0.15625z" fill-rule="nonzero"/><path fill="#000000" d="m652.881 155.88474q-1.515625 0 -2.5625 -0.578125q-1.046875 -0.59375 -1.59375 -1.671875q-0.53125 -1.078125 -0.53125 -2.5625q0 -1.125 0.3125 -2.0q0.3125 -0.890625 0.890625 -1.515625q0.59375 -0.640625 1.4375 -0.96875q0.859375 -0.34375 1.921875 -0.34375q0.828125 0 1.59375 0.21875q0.78125 0.21875 1.421875 0.71875q0.15625 0.109375 0.203125 0.28125q0.046875 0.15625 0 0.3125q-0.03125 0.15625 -0.15625 0.28125q-0.109375 0.125 -0.28125 0.140625q-0.15625 0.015625 -0.34375 -0.09375q-0.546875 -0.40625 -1.140625 -0.578125q-0.59375 -0.171875 -1.296875 -0.171875q-1.046875 0 -1.78125 0.4375q-0.734375 0.421875 -1.109375 1.265625q-0.359375 0.828125 -0.359375 2.015625q0 1.828125 0.859375 2.78125q0.859375 0.9375 2.546875 0.9375q0.625 0 1.21875 -0.125q0.59375 -0.125 1.140625 -0.328125l-0.265625 0.65625l0 -3.203125l-1.8125 0q-0.234375 0 -0.375 -0.125q-0.140625 -0.140625 -0.140625 -0.375q0 -0.21875 0.140625 -0.34375q0.140625 -0.125 0.375 -0.125l2.359375 0q0.25 0 0.375 0.140625q0.140625 0.125 0.140625 0.390625l0 3.421875q0 0.21875 -0.078125 0.375q-0.078125 0.140625 -0.265625 0.203125q-0.5625 0.234375 -1.34375 0.390625q-0.765625 0.140625 -1.5 0.140625z" fill-rule="nonzero"/><path fill="#000000" d="m662.5034 174.43161q-1.15625 0 -1.9375 -0.40625q-0.765625 -0.40625 -1.140625 -1.1875q-0.375 -0.78125 -0.375 -1.921875l0 -4.8125l-1.25 0q-0.359375 0 -0.5625 -0.171875q-0.1875 -0.1875 -0.1875 -0.5q0 -0.34375 0.1875 -0.515625q0.203125 -0.171875 0.5625 -0.171875l1.25 0l0 -2.140625q0 -0.4375 0.234375 -0.65625q0.234375 -0.234375 0.65625 -0.234375q0.4375 0 0.65625 0.234375q0.21875 0.21875 0.21875 0.65625l0 2.140625l2.375 0q0.375 0 0.5625 0.171875q0.203125 0.171875 0.203125 0.515625q0 0.3125 -0.203125 0.5q-0.1875 0.171875 -0.5625 0.171875l-2.375 0l0 4.65625q0 1.078125 0.453125 1.625q0.453125 0.546875 1.484375 0.546875q0.375 0 0.625 -0.0625q0.265625 -0.078125 0.453125 -0.078125q0.171875 -0.015625 0.296875 0.125q0.140625 0.125 0.140625 0.5q0 0.28125 -0.09375 0.5q-0.09375 0.21875 -0.34375 0.296875q-0.234375 0.09375 -0.625 0.15625q-0.390625 0.0625 -0.703125 0.0625z" fill-rule="nonzero"/><path fill="#000000" fill-opacity="0.0" d="m674.42584 103.76313l94.20477 0l0 73.07087" fill-rule="evenodd"/><path stroke="#000000" stroke-width="2.0" stroke-linejoin="round" stroke-linecap="butt" stroke-dasharray="8.0,6.0" d="m674.42584 103.76313l94.20477 0l0 73.07087" fill-rule="evenodd"/><path fill="#000000" fill-opacity="0.0" d="m674.4304 160.91733l43.338623 0l0 34.078735l43.338562 0" fill-rule="evenodd"/><path stroke="#000000" stroke-width="2.0" stroke-linejoin="round" stroke-linecap="butt" stroke-dasharray="8.0,6.0" d="m674.4304 160.91733l43.338623 0l0 34.078735l43.338562 0" fill-rule="evenodd"/><path fill="#000000" fill-opacity="0.0" d="m405.68896 318.7244l-86.33469 0l0 -115.54294l134.17722 0l0 -84.29957" fill-rule="evenodd"/><path stroke="#000000" stroke-width="2.0" stroke-linejoin="round" stroke-linecap="butt" d="m405.68896 318.7244l-86.33469 0l0 -115.54294l134.17722 0l0 -72.29956" fill-rule="evenodd"/><path fill="#000000" stroke="#000000" stroke-width="2.0" stroke-linecap="butt" d="m456.83496 130.88188l-3.3034668 -9.076187l-3.3034668 9.076187z" fill-rule="evenodd"/><path fill="#000000" fill-opacity="0.0" d="m554.6483 87.22835l74.14172 74.04724" fill-rule="evenodd"/><path stroke="#000000" stroke-width="2.0" stroke-linejoin="round" stroke-linecap="butt" d="m554.6483 87.22835l74.14172 74.04724" fill-rule="evenodd"/><path fill="#000000" fill-opacity="0.0" d="m479.12204 287.48032l2.0787354 -169.00787" fill-rule="evenodd"/><path stroke="#000000" stroke-width="2.0" stroke-linejoin="round" stroke-linecap="butt" d="m479.12204 287.48032l1.9311523 -157.00879" fill-rule="evenodd"/><path fill="#000000" stroke="#000000" stroke-width="2.0" stroke-linecap="butt" d="m484.3564 130.51216l-3.1915894 -9.116135l-3.4148254 9.034882z" fill-rule="evenodd"/><path fill="#000000" fill-opacity="0.0" d="m786.79266 220.6811l0 67.401566" fill-rule="evenodd"/><path stroke="#000000" stroke-width="1.0" stroke-linejoin="round" stroke-linecap="butt" d="m786.79266 220.6811l0 61.401566" fill-rule="evenodd"/><path fill="#000000" stroke="#000000" stroke-width="1.0" stroke-linecap="butt" d="m785.1409 282.08267l1.6517334 4.5381165l1.6517334 -4.5381165z" fill-rule="evenodd"/><path fill="#000000" fill-opacity="0.0" d="m292.83466 53.37008l54.393677 0l0 28.125984l-54.393677 0z" fill-rule="evenodd"/><path fill="#000000" d="m304.63153 83.006325q-0.46875 0 -0.734375 -0.265625q-0.25 -0.28125 -0.25 -0.765625l0 -13.28125q0 -0.515625 0.25 -0.765625q0.265625 -0.265625 0.734375 -0.265625q0.484375 0 0.734375 0.265625q0.265625 0.25 0.265625 0.765625l0 5.6875l8.703125 0l0 -5.6875q0 -0.515625 0.25 -0.765625q0.265625 -0.265625 0.75 -0.265625q0.46875 0 0.71875 0.265625q0.265625 0.25 0.265625 0.765625l0 13.28125q0 0.484375 -0.265625 0.765625q-0.25 0.265625 -0.71875 0.265625q-0.484375 0 -0.75 -0.265625q-0.25 -0.28125 -0.25 -0.765625l0 -5.90625l-8.703125 0l0 5.90625q0 0.484375 -0.25 0.765625q-0.234375 0.265625 -0.75 0.265625z" fill-rule="nonzero"/><path fill="#000000" d="m319.0669 75.943825q-0.234375 0 -0.359375 -0.09375q-0.125 -0.109375 -0.15625 -0.28125q-0.03125 -0.171875 0.078125 -0.390625l3.390625 -7.6875q0.109375 -0.265625 0.28125 -0.375q0.1875 -0.125 0.390625 -0.125q0.21875 0 0.375 0.125q0.171875 0.109375 0.296875 0.375l3.390625 7.6875q0.109375 0.21875 0.078125 0.40625q-0.015625 0.171875 -0.140625 0.265625q-0.125 0.09375 -0.34375 0.09375q-0.25 0 -0.40625 -0.125q-0.140625 -0.140625 -0.25 -0.390625l-0.890625 -2.0625l0.546875 0.296875l-5.328125 0l0.53125 -0.296875l-0.875 2.0625q-0.109375 0.265625 -0.25 0.390625q-0.140625 0.125 -0.359375 0.125zm3.609375 -7.5625l-1.953125 4.59375l-0.296875 -0.265625l4.5 0l-0.28125 0.265625l-1.953125 -4.59375l-0.015625 0zm6.2417603 7.46875q-0.296875 0 -0.453125 -0.15625q-0.15625 -0.171875 -0.15625 -0.46875l0 -7.515625q0 -0.296875 0.15625 -0.453125q0.15625 -0.171875 0.453125 -0.171875l4.578125 0q0.25 0 0.375 0.125q0.125 0.109375 0.125 0.328125q0 0.234375 -0.125 0.359375q-0.125 0.125 -0.375 0.125l-4.078125 0l0 2.90625l3.828125 0q0.234375 0 0.359375 0.125q0.125 0.125 0.125 0.34375q0 0.234375 -0.125 0.359375q-0.125 0.109375 -0.359375 0.109375l-3.828125 0l0 3.046875l4.078125 0q0.25 0 0.375 0.125q0.125 0.109375 0.125 0.34375q0 0.234375 -0.125 0.359375q-0.125 0.109375 -0.375 0.109375l-4.578125 0z" fill-rule="nonzero"/><path fill="#000000" fill-opacity="0.0" d="m414.55905 139.94751l54.393707 0l0 28.125977l-54.393707 0z" fill-rule="evenodd"/><path fill="#000000" d="m426.35593 169.58376q-0.46875 0 -0.734375 -0.265625q-0.25 -0.28125 -0.25 -0.765625l0 -13.28125q0 -0.515625 0.25 -0.765625q0.265625 -0.265625 0.734375 -0.265625q0.484375 0 0.734375 0.265625q0.265625 0.25 0.265625 0.765625l0 5.6875l8.703125 0l0 -5.6875q0 -0.515625 0.25 -0.765625q0.265625 -0.265625 0.75 -0.265625q0.46875 0 0.71875 0.265625q0.265625 0.25 0.265625 0.765625l0 13.28125q0 0.484375 -0.265625 0.765625q-0.25 0.265625 -0.71875 0.265625q-0.484375 0 -0.75 -0.265625q-0.25 -0.28125 -0.25 -0.765625l0 -5.90625l-8.703125 0l0 5.90625q0 0.484375 -0.25 0.765625q-0.234375 0.265625 -0.75 0.265625z" fill-rule="nonzero"/><path fill="#000000" d="m444.94757 162.53688q-1.40625 0 -2.390625 -0.53125q-0.96875 -0.546875 -1.46875 -1.546875q-0.5 -1.015625 -0.5 -2.40625q0 -1.046875 0.28125 -1.875q0.296875 -0.828125 0.84375 -1.421875q0.546875 -0.59375 1.34375 -0.890625q0.796875 -0.3125 1.78125 -0.3125q0.78125 0 1.5 0.203125q0.71875 0.203125 1.3125 0.65625q0.15625 0.125 0.1875 0.28125q0.046875 0.140625 0 0.296875q-0.03125 0.140625 -0.140625 0.25q-0.09375 0.109375 -0.25 0.125q-0.15625 0.015625 -0.328125 -0.09375q-0.515625 -0.375 -1.078125 -0.53125q-0.546875 -0.15625 -1.203125 -0.15625q-0.984375 0 -1.671875 0.40625q-0.671875 0.390625 -1.015625 1.171875q-0.34375 0.78125 -0.34375 1.890625q0 1.703125 0.796875 2.59375q0.8125 0.875 2.390625 0.875q0.578125 0 1.125 -0.109375q0.5625 -0.109375 1.078125 -0.3125l-0.25 0.625l0 -3.0l-1.703125 0q-0.21875 0 -0.359375 -0.125q-0.125 -0.125 -0.125 -0.34375q0 -0.203125 0.125 -0.3125q0.140625 -0.125 0.359375 -0.125l2.203125 0q0.234375 0 0.359375 0.125q0.125 0.125 0.125 0.375l0 3.1875q0 0.203125 -0.078125 0.34375q-0.0625 0.140625 -0.234375 0.203125q-0.53125 0.21875 -1.25 0.359375q-0.71875 0.125 -1.421875 0.125z" fill-rule="nonzero"/><path fill="#000000" fill-opacity="0.0" d="m477.8058 139.94751l54.393677 0l0 28.125977l-54.393677 0z" fill-rule="evenodd"/><path fill="#000000" d="m489.60266 169.58376q-0.46875 0 -0.734375 -0.265625q-0.25 -0.28125 -0.25 -0.765625l0 -13.28125q0 -0.515625 0.25 -0.765625q0.265625 -0.265625 0.734375 -0.265625q0.484375 0 0.734375 0.265625q0.265625 0.25 0.265625 0.765625l0 5.6875l8.703125 0l0 -5.6875q0 -0.515625 0.25 -0.765625q0.265625 -0.265625 0.75 -0.265625q0.46875 0 0.71875 0.265625q0.265625 0.25 0.265625 0.765625l0 13.28125q0 0.484375 -0.265625 0.765625q-0.25 0.265625 -0.71875 0.265625q-0.484375 0 -0.75 -0.265625q-0.25 -0.28125 -0.25 -0.765625l0 -5.90625l-8.703125 0l0 5.90625q0 0.484375 -0.25 0.765625q-0.234375 0.265625 -0.75 0.265625z" fill-rule="nonzero"/><path fill="#000000" d="m507.03802 162.53688q-0.59375 0 -1.140625 -0.09375q-0.546875 -0.09375 -1.03125 -0.28125q-0.484375 -0.1875 -0.875 -0.453125q-0.15625 -0.109375 -0.234375 -0.265625q-0.0625 -0.171875 -0.03125 -0.328125q0.03125 -0.15625 0.140625 -0.265625q0.109375 -0.109375 0.25 -0.125q0.15625 -0.03125 0.328125 0.09375q0.578125 0.375 1.203125 0.546875q0.625 0.171875 1.390625 0.171875q1.09375 0 1.609375 -0.390625q0.515625 -0.390625 0.515625 -1.046875q0 -0.53125 -0.375 -0.828125q-0.375 -0.3125 -1.265625 -0.484375l-1.3125 -0.28125q-1.171875 -0.25 -1.75 -0.8125q-0.578125 -0.578125 -0.578125 -1.53125q0 -0.59375 0.234375 -1.0625q0.234375 -0.484375 0.671875 -0.828125q0.4375 -0.34375 1.03125 -0.53125q0.59375 -0.1875 1.3125 -0.1875q0.765625 0 1.4375 0.21875q0.6875 0.203125 1.234375 0.609375q0.15625 0.109375 0.203125 0.265625q0.046875 0.15625 0.015625 0.3125q-0.03125 0.140625 -0.140625 0.25q-0.109375 0.09375 -0.265625 0.109375q-0.140625 0 -0.328125 -0.109375q-0.5 -0.359375 -1.03125 -0.515625q-0.515625 -0.15625 -1.140625 -0.15625q-0.625 0 -1.09375 0.203125q-0.46875 0.203125 -0.734375 0.5625q-0.25 0.34375 -0.25 0.8125q0 0.578125 0.34375 0.90625q0.359375 0.3125 1.171875 0.5l1.3125 0.25q1.234375 0.265625 1.84375 0.8125q0.609375 0.53125 0.609375 1.4375q0 0.578125 -0.234375 1.046875q-0.234375 0.453125 -0.65625 0.78125q-0.421875 0.328125 -1.03125 0.515625q-0.609375 0.171875 -1.359375 0.171875z" fill-rule="nonzero"/></g></svg>